<?xml version="1.0" encoding="utf-8"?>
<!-- Generator: Adobe Illustrator 15.0.0, SVG Export Plug-In . SVG Version: 6.00 Build 0)  -->
<!DOCTYPE svg PUBLIC "-//W3C//DTD SVG 1.1//EN" "http://www.w3.org/Graphics/SVG/1.1/DTD/svg11.dtd">
<svg version="1.1" id="layer" xmlns="http://www.w3.org/2000/svg" xmlns:xlink="http://www.w3.org/1999/xlink" x="0px" y="0px"
	 viewBox="0 0 32 32" enable-background="new 0 0 32 32" xml:space="preserve">
<path fill="#4B96B8" d="M20.115,17.058c-0.158,0.319-0.315,0.636-0.474,0.945l2.933,1.612l-5.486,3.102
	c-0.096,0.167-0.176,0.307-0.223,0.387l-0.82,1.402l2.215,1.252L16,27l-2.26-1.242l2.215-1.252l-0.819-1.402
	c-0.048-0.08-0.127-0.22-0.224-0.387l-5.485-3.102l2.932-1.612c-0.157-0.31-0.317-0.626-0.474-0.945L3,21.5L16,29l13-7.5
	L20.115,17.058z M6,21.5l2.396-1.317l6.588,3.724l-2.272,1.284L6,21.5z M17.017,23.906l6.588-3.724L26,21.5l-6.711,3.69
	L17.017,23.906z"/>
<path fill="#4B96B8" d="M22,9c0,3.313-6,13.6-6,13.6S10,12.313,10,9c0-3.313,2.688-6,6-6S22,5.688,22,9 M16,6c-1.657,0-3,1.343-3,3
	s1.343,3,3,3s3-1.343,3-3S17.657,6,16,6"/>
</svg>
