<?xml version="1.0" encoding="utf-8"?>
<!-- Generator: Adobe Illustrator 15.0.0, SVG Export Plug-In . SVG Version: 6.00 Build 0)  -->
<!DOCTYPE svg PUBLIC "-//W3C//DTD SVG 1.1//EN" "http://www.w3.org/Graphics/SVG/1.1/DTD/svg11.dtd">
<svg version="1.1" id="layer" xmlns="http://www.w3.org/2000/svg" xmlns:xlink="http://www.w3.org/1999/xlink" x="0px" y="0px"
	 viewBox="0 0 32 32" enable-background="new 0 0 32 32" xml:space="preserve">
<path fill="#4B96B8" d="M26.297,13.717c-0.244-1.227-0.703-2.365-1.331-3.395l2.256-2.904l-2.64-2.639l-2.837,2.207
	c-1.044-0.689-2.22-1.189-3.485-1.47L17.863,2h-3.727L13.74,5.517c-1.266,0.28-2.441,0.78-3.484,1.47L7.418,4.779l-2.64,2.645
	l2.256,2.898c-0.628,1.029-1.087,2.168-1.331,3.395L2,14.137V16h9.938c-0.004-0.079-0.023-0.153-0.023-0.232
	c0-2.256,1.829-4.085,4.085-4.085s4.085,1.829,4.085,4.085c0,0.08-0.019,0.154-0.023,0.232H30v-1.869L26.297,13.717z"/>
<path fill="#4B96B8" d="M19.875,17c-0.114,0.359-0.284,0.691-0.486,1h9.407L30,17.863V17H19.875z"/>
<path fill="#4B96B8" d="M12.611,18c-0.202-0.309-0.372-0.641-0.486-1H2v0.869L3.168,18H12.611z"/>
<path fill="#4B96B8" d="M25.582,20c0.143-0.328,0.284-0.656,0.395-1h-7.501c-0.685,0.532-1.539,0.853-2.475,0.853
	S14.209,19.532,13.525,19H6.024c0.111,0.344,0.251,0.672,0.394,1H25.582z"/>
<path fill="#4B96B8" d="M6.789,22h18.423l-0.407-0.521c0.1-0.153,0.175-0.32,0.267-0.479H6.929c0.091,0.158,0.167,0.326,0.267,0.479
	L6.789,22z"/>
<polygon fill="#4B96B8" points="26.772,24 25.992,23 6.008,23 5.228,24 "/>
<polygon fill="#4B96B8" points="7.703,27 8.986,26 6.199,26 7.197,27 "/>
<g>
	<path fill="#4B96B8" d="M13.799,27h4.402l0.112-0.995c0.006-0.001,0.012-0.003,0.018-0.005h-4.663
		c0.006,0.001,0.012,0.003,0.018,0.005L13.799,27z"/>
	<polygon fill="#4B96B8" points="14.024,29 14.137,30 17.863,30 17.976,29 	"/>
</g>
<polygon fill="#4B96B8" points="24.803,27 25.801,26 23.013,26 24.297,27 "/>
</svg>
