<?xml version="1.0" encoding="utf-8"?>
<!-- Generator: Adobe Illustrator 15.0.0, SVG Export Plug-In . SVG Version: 6.00 Build 0)  -->
<!DOCTYPE svg PUBLIC "-//W3C//DTD SVG 1.1//EN" "http://www.w3.org/Graphics/SVG/1.1/DTD/svg11.dtd">
<svg version="1.1" id="layer" xmlns="http://www.w3.org/2000/svg" xmlns:xlink="http://www.w3.org/1999/xlink" x="0px" y="0px"
	 viewBox="0 0 32 32" enable-background="new 0 0 32 32" xml:space="preserve">
<path fill="#4B96B8" d="M28,20h-5.853V6h2.148v11.864H28V20z"/>
<path fill="#4B96B8" d="M10.873,19.382c-0.135-0.71,0.167-1.425,0.761-1.814c0.258-0.172,0.557-0.26,0.865-0.281
	c0.023-0.167,0.047-0.335,0.047-0.514V6h-2.239v10.75c0,0.341-0.119,0.631-0.357,0.869c-0.239,0.239-0.528,0.358-0.87,0.358
	c-0.341,0-0.632-0.119-0.875-0.358c-0.242-0.238-0.363-0.528-0.363-0.869V6H5.738v10.773c0,0.939,0.33,1.738,0.989,2.397
	s1.462,0.989,2.409,0.989c0.665,0,1.259-0.172,1.788-0.5L10.873,19.382z"/>
<rect x="5" y="21" fill="#4B96B8" width="6" height="1"/>
<path fill="#4B96B8" d="M16.171,19.282v-4.646h1.238c0.068,0,0.133,0,0.193,0L18.904,20h2.323l-1.591-6.216
	c0.765-0.697,1.147-1.549,1.147-2.557V9.159c0-1.03-0.246-1.833-0.738-2.409C19.484,6.091,18.606,6,17.409,6h-3.387v11.846
	L16.171,19.282z M16.171,7.955h1.295c0.818,0,1.228,0.413,1.228,1.239v2.08c0,0.341-0.119,0.632-0.358,0.875
	c-0.238,0.242-0.528,0.363-0.869,0.363h-1.295V7.955z"/>
<polygon fill="#4B96B8" points="19.244,21 20.739,22 28,22 28,21 "/>
<g>
	<path fill="#4B96B8" d="M21.862,24.891l-9.085-6.073c-0.095-0.063-0.217-0.064-0.311-0.002c-0.094,0.062-0.141,0.173-0.12,0.286
		l1.997,10.744c0.018,0.127,0.12,0.228,0.247,0.245c0.128,0.016,0.249-0.055,0.295-0.174l1.422-3.638L19.418,31l1.499-0.987
		l-3.114-4.727l3.911,0.129c0.127,0.004,0.24-0.079,0.276-0.202C22.024,25.091,21.972,24.958,21.862,24.891z"/>
</g>
</svg>
