<?xml version="1.0" encoding="utf-8"?>
<!-- Generator: Adobe Illustrator 15.0.0, SVG Export Plug-In . SVG Version: 6.00 Build 0)  -->
<!DOCTYPE svg PUBLIC "-//W3C//DTD SVG 1.1//EN" "http://www.w3.org/Graphics/SVG/1.1/DTD/svg11.dtd">
<svg version="1.1" id="layer" xmlns="http://www.w3.org/2000/svg" xmlns:xlink="http://www.w3.org/1999/xlink" x="0px" y="0px"
	 viewBox="0 0 32 32" enable-background="new 0 0 32 32" xml:space="preserve">
<rect x="7" y="8" fill="#4B96B8" width="13" height="1"/>
<rect x="7" y="10" fill="#4B96B8" width="13" height="1"/>
<rect x="7" y="12" fill="#4B96B8" width="11" height="1"/>
<polygon fill="#4B96B8" points="11.588,23 5,23 5,6 27,6 27,10 29,11.594 29,4 3,4 3,25 13,25 "/>
<circle fill="#4B96B8" cx="25" cy="15" r="4"/>
<path fill="#4B96B8" d="M25,20c-0.656,0-1.278,0.134-1.852,0.364c-0.46,0.23-5.332,3.887-5.332,3.887l-2.511-3.114
	c-0.197-0.245-0.544-0.309-0.923-0.239L12.424,14l-0.962,0.273l2.007,7.071c-0.609,0.519-0.837,1.257-0.499,1.677l3.139,3.892
	c0.035,0.042,0.091,0.058,0.133,0.091c0.058,0.101,0.104,0.203,0.181,0.298c0.52,0.645,1.289,0.887,1.72,0.54L20,26.344V30
	c3,0,7,0,10,0v-5C30,22.239,27.762,20,25,20z"/>
</svg>
