<?xml version="1.0" encoding="utf-8"?>
<!-- Generator: Adobe Illustrator 15.0.0, SVG Export Plug-In . SVG Version: 6.00 Build 0)  -->
<!DOCTYPE svg PUBLIC "-//W3C//DTD SVG 1.1//EN" "http://www.w3.org/Graphics/SVG/1.1/DTD/svg11.dtd">
<svg version="1.1" id="layer" xmlns="http://www.w3.org/2000/svg" xmlns:xlink="http://www.w3.org/1999/xlink" x="0px" y="0px"
	 viewBox="0 0 32 32" enable-background="new 0 0 32 32" xml:space="preserve">
<g>
	<path fill="#4B96B8" d="M15.089,20.773c-0.768-0.025-1.49-0.099-2.168-0.22c-0.678-0.121-1.24-0.29-1.687-0.507v-2.454
		c0.306,0.117,0.603,0.219,0.893,0.306c0.29,0.088,0.588,0.164,0.893,0.226c0.306,0.063,0.627,0.113,0.964,0.15
		c0.336,0.038,0.705,0.061,1.104,0.069v-2.741c-0.493-0.076-0.983-0.178-1.469-0.308s-0.922-0.323-1.31-0.582
		c-0.388-0.258-0.704-0.601-0.946-1.027C11.121,13.26,11,12.709,11,12.033c0-0.551,0.094-1.041,0.282-1.471
		c0.188-0.43,0.458-0.801,0.811-1.114c0.353-0.313,0.782-0.565,1.287-0.758c0.506-0.192,1.075-0.326,1.71-0.401V7h1.869v1.252
		c0.571,0.033,1.153,0.103,1.745,0.207c0.591,0.104,1.134,0.249,1.627,0.432v2.479c-1.207-0.417-2.331-0.651-3.372-0.701v2.78
		c0.493,0.083,0.98,0.194,1.463,0.332c0.481,0.138,0.912,0.337,1.292,0.601c0.38,0.262,0.689,0.607,0.928,1.033
		C20.88,15.84,21,16.387,21,17.054c0,1.069-0.351,1.908-1.052,2.517c-0.701,0.61-1.698,0.989-2.99,1.14V22h-1.869V20.773z
		 M13.573,11.908c0,0.351,0.125,0.618,0.376,0.801c0.25,0.185,0.63,0.326,1.14,0.426v-2.404c-0.572,0.067-0.968,0.202-1.187,0.406
		C13.683,11.343,13.573,11.6,13.573,11.908z M18.415,17.104c0-0.351-0.119-0.616-0.358-0.795c-0.239-0.18-0.605-0.315-1.098-0.407
		v2.354C17.929,18.123,18.415,17.739,18.415,17.104z"/>
</g>
<path fill="#4B96B8" d="M26.5,3h-21C4.125,3,3,4.125,3,5.5v20C3,26.875,4.125,28,5.5,28H11v3l6-4.5L15,25v0h0l-4-3v3H6V6h20v19h-6v3
	h6.5c1.375,0,2.5-1.125,2.5-2.5v-20C29,4.125,27.875,3,26.5,3z"/>
</svg>
