<svg xmlns="http://www.w3.org/2000/svg" viewBox="0 0 32 32"><defs><style>.cls-1{fill:#4b96b8;}</style></defs><title>membership-group</title><path class="cls-1" d="M11 22h-6.349l2.858-10h19.84l-1.715 6h2.08l2.286-8h-4v-4h-13l-2-4h-9v22h9v-2z"/><path id="user-icon" class="cls-1" d="M26.839 28c0-.325.63-2.123-.605-2.632-.845-.348-1.318-.373-1.006-.947.923-1.699.263-2.661-.728-2.661s-1.651.962-.728 2.661c.311.573-.162.598-1.006.947-1.235.509-.605 2.308-.605 2.632z"/><path class="cls-1" d="M15 23h5v1h-5zM15 25h5v1h-5zM12 19v11h17v-11zm16 10h-15v-9h15z"/></svg>