<svg id="レイヤー_1" data-name="レイヤー 1" xmlns="http://www.w3.org/2000/svg" viewBox="0 0 18 18"><defs><style>.cls-1{fill:#787878;}</style></defs><title>アートボード 21 のコピー</title><path class="cls-1" d="M9.85,16l-.26.11a1.51,1.51,0,0,1-1.18,0L5.5,14.88v-7L8,9a2.55,2.55,0,0,0,2,0l2.26-1v2.3a4.45,4.45,0,0,1,1-.37V7.59l2.39-1V10a4.79,4.79,0,0,1,1,.41V5.47a1,1,0,0,0-.6-.92l-1.67-.71c-.06.08-.11.17-.18.25h0a5.72,5.72,0,0,1-.59.5l2,.88L12.88,6.66,11.46,6a8.1,8.1,0,0,1-1.21.55l1.38.62-2,.88a1.51,1.51,0,0,1-1.18,0L6.24,7.14l1.3-.58C7.2,6.42,6.83,6.25,6.43,6L6.35,6,5,6.61,2.36,5.47h0l1.92-.83a5.29,5.29,0,0,1-.6-.55h0C3.62,4,3.58,4,3.53,3.88L2,4.55a1,1,0,0,0-.6.92v7.78a1.42,1.42,0,0,0,.87,1.32L8,17a2.55,2.55,0,0,0,2,0l.27-.12A5,5,0,0,1,9.85,16ZM4.5,14.45l-1.87-.8a.44.44,0,0,1-.27-.4V6.56l2.14.92Z"/><path class="cls-1" d="M9,5.85a.6.6,0,0,1-.43-.14c-.17-.16-.54-.49.3-2.45A10.29,10.29,0,0,1,10.43.67,2,2,0,0,1,13.31.53,2.07,2.07,0,0,1,14,1.94a2.07,2.07,0,0,1-.53,1.48h0C12.82,4.11,10.21,5.85,9,5.85ZM11.94,1h0a1.07,1.07,0,0,0-.72.34A10.34,10.34,0,0,0,9.42,4.77a10.64,10.64,0,0,0,3.29-2h0A1,1,0,0,0,13,2a1.09,1.09,0,0,0-.34-.72A1.07,1.07,0,0,0,11.94,1Z"/><path class="cls-1" d="M8.84,5.85c-1.18,0-3.79-1.74-4.42-2.43A2.06,2.06,0,0,1,3.9,1.94,2,2,0,0,1,4.56.53,2.05,2.05,0,0,1,7.45.67,10.26,10.26,0,0,1,9,3.26c.84,2,.47,2.29.3,2.45A.59.59,0,0,1,8.84,5.85ZM5.94,1a1,1,0,0,0-.7.27A1,1,0,0,0,4.9,2a1,1,0,0,0,.27.75h0a10.72,10.72,0,0,0,3.28,2A10.5,10.5,0,0,0,6.71,1.34,1.07,1.07,0,0,0,5.94,1Z"/></svg>