<?xml version="1.0" encoding="utf-8"?>
<!-- Generator: Adobe Illustrator 15.0.0, SVG Export Plug-In . SVG Version: 6.00 Build 0)  -->
<!DOCTYPE svg PUBLIC "-//W3C//DTD SVG 1.1//EN" "http://www.w3.org/Graphics/SVG/1.1/DTD/svg11.dtd">
<svg version="1.1" id="layer" xmlns="http://www.w3.org/2000/svg" xmlns:xlink="http://www.w3.org/1999/xlink" x="0px" y="0px"
	 viewBox="0 0 32 32" enable-background="new 0 0 32 32" xml:space="preserve">
<path fill="#4B96B8" d="M4,4v2v6v2h8h2V6V4H4z M12,12H6V6h6V12z"/>
<polygon fill="#4B96B8" points="15,7 15,15 7,15 7,20 15,20 20,20 20,7 "/>
<g>
	<path fill="#4B96B8" d="M25,16.254c0.845,0.166,1.556,0.737,1.878,1.558l0.02,0.049l0.016,0.051L27,18.175V13v-2h-6v2h4V16.254z"/>
	<polygon fill="#4B96B8" points="19,25.88 17.576,25 13,25 13,21 11,21 11,25 11,27 18.787,27 	"/>
</g>
<g>
	<g>
		<path fill="#4B96B8" d="M30.963,22.531c-0.095-0.287-0.732-0.518-1.045-0.531h-3.563l-1.152-3.529
			C25.092,18.188,24.813,18,24.499,18s-0.593,0.188-0.702,0.471L22.642,22h-3.559c-0.313,0.014-0.95,0.244-1.047,0.531
			c-0.096,0.286,0.002,0.603,0.247,0.79L21,25l-0.777,4.083c-0.083,0.291,0.027,0.601,0.281,0.778
			c0.254,0.177,0.595,0.186,0.857,0.019l3.138-1.998l3.139,1.998c0.263,0.167,0.604,0.158,0.857-0.019
			c0.252-0.178,0.363-0.487,0.281-0.778L28,25l2.718-1.679C30.963,23.134,31.061,22.817,30.963,22.531z"/>
	</g>
</g>
</svg>
