<svg id="レイヤー_1" data-name="レイヤー 1" xmlns="http://www.w3.org/2000/svg" viewBox="0 0 18 18"><defs><style>.cls-1{fill:#787878;}</style></defs><title>アートボード 7</title><path class="cls-1" d="M16.1,6.19H4.27A1.25,1.25,0,0,0,3,7.44v6.28a.5.5,0,0,1-.5.5H2.15a.5.5,0,0,1-.5-.5V4a.2.2,0,0,1,.2-.2h3.6A1,1,0,0,1,6,3.93l1,.58a2.13,2.13,0,0,0,1,.28h6.73A.26.26,0,0,1,15,5v.4h1V5a1.25,1.25,0,0,0-1.25-1.25H8a1,1,0,0,1-.53-.15l-1-.58a2.13,2.13,0,0,0-1-.28H1.85A1.2,1.2,0,0,0,.65,4v9.74a1.5,1.5,0,0,0,1.5,1.5h14A1.25,1.25,0,0,0,17.35,14V7.44A1.25,1.25,0,0,0,16.1,6.19ZM16.35,14a.25.25,0,0,1-.25.25H3.93a1.64,1.64,0,0,0,.09-.5V7.44a.25.25,0,0,1,.25-.25H16.1a.25.25,0,0,1,.25.25Z"/></svg>