<svg id="レイヤー_1" data-name="レイヤー 1" xmlns="http://www.w3.org/2000/svg" viewBox="0 0 18 18"><defs><style>.cls-1{fill:#787878;}</style></defs><title>アートボード 7 のコピー 7</title><path class="cls-1" d="M17.7,3.25a.47.47,0,0,0-.15-.51A.49.49,0,0,0,17,2.66l-4.35,1.9L10,3.4a2.76,2.76,0,0,0-.85-.19L8.38.41A.71.71,0,0,0,7.47.05L.89,2.79A.68.68,0,0,0,.5,3.6l.88,3.14h0a1.08,1.08,0,0,0,0,.19v6.78A1.44,1.44,0,0,0,2.23,15L8,17.5a2.55,2.55,0,0,0,2,0L15.77,15a1.44,1.44,0,0,0,.87-1.32V7.11Zm-2,3.68h0L9.92,9.39l.45-2.73L16.46,4ZM11.42,5.11l-1.7.74a.52.52,0,0,0-.29.38L8.87,9.64a1.2,1.2,0,0,1-.46-.11L2.36,6.93h0L8.41,4.32a1.51,1.51,0,0,1,1.18,0Zm-3.88-4,.6,2.25L8,3.4,2.19,5.91l-.65-2.3Zm7.83,13L9.59,16.58a1.51,1.51,0,0,1-1.18,0L2.63,14.11a.45.45,0,0,1-.27-.4V8L8,10.45a2.44,2.44,0,0,0,2,0L15.64,8v5.69A.45.45,0,0,1,15.37,14.11Z"/></svg>