<svg id="レイヤー_1" data-name="レイヤー 1" xmlns="http://www.w3.org/2000/svg" xmlns:xlink="http://www.w3.org/1999/xlink" viewBox="0 0 14.8 11.14"><defs><style>.cls-1{fill:none;}.cls-2{clip-path:url(#clip-path);}.cls-3{fill:#fff;}.cls-4{fill:#fefefe;}.cls-5{fill:#fdfdfd;}.cls-6{fill:#fcfcfc;}.cls-7{fill:#fbfbfb;}.cls-8{fill:#fafafa;}.cls-9{fill:#f9f9f9;}.cls-10{fill:#f8f8f8;}.cls-11{fill:#f7f7f7;}.cls-12{fill:#f6f6f6;}.cls-13{fill:#f5f5f5;}.cls-14{fill:#f4f5f5;}.cls-15{fill:#f4f4f4;}.cls-16{fill:#f3f3f3;}.cls-17{fill:#f2f3f3;}.cls-18{fill:#f2f2f2;}.cls-19{fill:#f1f1f1;}.cls-20{fill:#f0f1f1;}.cls-21{fill:#f0f0f0;}.cls-22{fill:#efefef;}.cls-23{fill:#eeeeef;}.cls-24{fill:#eee;}.cls-25{fill:#ededed;}.cls-26{fill:#ececed;}.cls-27{fill:#ebecec;}.cls-28{fill:#ebebeb;}.cls-29{fill:#eaeaea;}.cls-30{fill:#e9eaea;}.cls-31{fill:#e8e9e9;}.cls-32{fill:#e8e8e8;}.cls-33{fill:#e7e7e8;}.cls-34{fill:#e6e7e7;}.cls-35{fill:#e6e6e6;}.cls-36{fill:#e5e5e6;}.cls-37{fill:#e4e5e5;}.cls-38{fill:#e3e4e4;}.cls-39{fill:#e3e3e3;}.cls-40{fill:#e2e2e3;}.cls-41{fill:#e1e2e2;}.cls-42{fill:#e0e1e1;}.cls-43{fill:#e0e0e0;}.cls-44{fill:#dfdfe0;}.cls-45{fill:#dedfdf;}.cls-46{fill:#dddede;}.cls-47{fill:#ddddde;}.cls-48{fill:#dcdcdd;}.cls-49{fill:#dbdcdc;}.cls-50{fill:#dadbdb;}.cls-51{fill:#dadadb;}.cls-52{fill:#d9d9da;}.cls-53{fill:#d8d9d9;}.cls-54{fill:#d7d8d8;}.cls-55{fill:#d7d7d8;}.cls-56{fill:#d6d6d7;}.cls-57{fill:#d5d6d6;}.cls-58{fill:#d4d5d5;}.cls-59{fill:#d4d4d5;}.cls-60{fill:#d3d3d4;}.cls-61{fill:#231815;}.cls-62{fill:#c2ccd2;}.cls-62,.cls-63{stroke:#231815;stroke-miterlimit:10;stroke-width:0.06px;}.cls-63{fill:url(#名称未設定グラデーション_4);}.cls-64{fill:#008cd6;}</style><clipPath id="clip-path" transform="translate(-472.28 -388.73)"><path class="cls-1" d="M485.23,390.77h-.09v-.48a.33.33,0,0,0-.33-.33h-5.75c-.24,0-.29-.08-.43-.27l-.41-.59a.53.53,0,0,0-.55-.26h-4.14a.5.5,0,0,0-.53.28l-.43.66a1.16,1.16,0,0,0-.17.77v7.2a.33.33,0,0,0,.11.24h0a.33.33,0,0,0,.19.09h12.54a.33.33,0,0,0,.33-.33v-6.64A.33.33,0,0,0,485.23,390.77Z"/></clipPath><linearGradient id="名称未設定グラデーション_4" x1="479.03" y1="390.8" x2="479.03" y2="398.05" gradientUnits="userSpaceOnUse"><stop offset="0" stop-color="#eaf6fd"/><stop offset="1" stop-color="#c2ccd2"/></linearGradient></defs><title>icon_b2</title><g class="cls-2"><rect class="cls-3" x="0.12" y="0.12" x="0.12" y="0.15" x="0.12" y="0.29" x="0.12" y="0.44" x="0.12" y="0.58" x="0.12" y="0.72" x="0.12" y="0.87" x="0.12" y="1.01" x="0.12" y="1.15" x="0.12" y="1.3" x="0.12" y="1.44" x="0.12" y="1.58" x="0.12" y="1.73" x="0.12" y="1.87" x="0.12" y="2.01" x="0.12" y="2.16" x="0.12" y="2.3" x="0.12" y="2.44" x="0.12" y="2.58" x="0.12" y="2.73" x="0.12" y="2.87" x="0.12" y="3.01" x="0.12" y="3.16" x="0.12" y="3.3" x="0.12" y="3.44" x="0.12" y="3.59" x="0.12" y="3.73" x="0.12" y="3.87" x="0.12" y="4.02" x="0.12" y="4.16" x="0.12" y="4.3" x="0.12" y="4.45" x="0.12" y="4.59" x="0.12" y="4.73" x="0.12" y="4.87" x="0.12" y="5.02" x="0.12" y="5.16" x="0.12" y="5.3" x="0.12" y="5.45" x="0.12" y="5.59" x="0.12" y="5.73" x="0.12" y="5.88" x="0.12" y="6.02" x="0.12" y="6.16" x="0.12" y="6.31" x="0.12" y="6.45" x="0.12" y="6.59" x="0.12" y="6.74" x="0.12" y="6.88" x="0.12" y="7.02" x="0.12" y="7.17" x="0.12" y="7.31" x="0.12" y="7.45" x="0.12" y="7.59" x="0.12" y="7.74" x="0.12" y="7.88" x="0.12" y="8.02" x="0.12" y="8.17" x="0.12" y="8.31" x="0.12" y="8.45" x="0.12" y="8.6" x="0.12" y="8.74" x="0.12" y="8.88" x="0.12" y="9.03" x="0.12" y="9.17" x="0.12" y="9.31" d="M472.62,398.19a.44.44,0,0,1-.2-.11l.07-.08-.07.08a.45.45,0,0,1-.15-.33v-7.2a1.27,1.27,0,0,1,.19-.83l.44-.66a.61.61,0,0,1,.63-.33h4.14a.64.64,0,0,1,.65.31l.43.61c.12.16.14.19.32.19h5.75a.45.45,0,0,1,.45.45v.36a.45.45,0,0,1,.42.45v6.64a.45.45,0,0,1-.45.45H472.62Zm0-.28a.21.21,0,0,0,.12.05h12.53a.22.22,0,0,0,.22-.22v-6.64a.22.22,0,0,0-.22-.22H485v-.6a.22.22,0,0,0-.22-.22h-5.75a.53.53,0,0,1-.5-.28l0,0-.41-.59c-.12-.17-.18-.21-.45-.21h-4.14a.39.39,0,0,0-.43.23l-.44.66a1,1,0,0,0-.15.7v7.2a.21.21,0,0,0,.07.16Z" transform="translate(-472.28 -388.73)"/><path class="cls-62" d="M484.81,398.08H472.73a.33.33,0,0,1-.33-.33v-7.2a1.16,1.16,0,0,1,.17-.77l.43-.66a.5.5,0,0,1,.53-.28h4.14a.53.53,0,0,1,.55.26l.41.59c.14.18.19.27.43.27h5.75a.33.33,0,0,1,.33.33v7.46A.33.33,0,0,1,484.81,398.08Z" transform="translate(-472.28 -388.73)"/><path class="cls-63" d="M485.23,398.08H472.7l-.2-.09c.2.09.31-.06.31-.24v-6.64a.33.33,0,0,1,.33-.33h12.09a.33.33,0,0,1,.33.33v6.64A.33.33,0,0,1,485.23,398.08Z" transform="translate(-472.28 -388.73)"/><circle class="cls-3" cx="11.85" cy="8.18" r="2.96"/><circle class="cls-64" cx="11.85" cy="8.18" r="2.27"/><polygon class="cls-3" points="13.35 7.65 12.87 7.17 11.48 8.55 10.82 7.89 10.34 8.38 11.47 9.51 11.48 9.5 11.49 9.51 13.35 7.65"/></svg>