<svg id="レイヤー_1" data-name="レイヤー 1" xmlns="http://www.w3.org/2000/svg" viewBox="0 0 65.13 65.25"><defs><style>.cls-1{fill:#fff;}.cls-2{fill:#e60012;}.cls-3{fill:#22ac38;}.cls-4{fill:#9369aa;}.cls-5{fill:#036eb8;}.cls-6{fill:#75bc2a;}.cls-7{fill:#dfb614;}.cls-8{fill:#f08000;}</style></defs><title>バリエーションICON</title><circle class="cls-1" cx="32.56" cy="32.63" r="19.75"/><path class="cls-2" d="M392.22,281.42l11.8,6.81a19,19,0,0,1,16.41-9.44V265.17A32.6,32.6,0,0,0,392.22,281.42Z" transform="translate(-387.8 -265.17)"/><polygon class="cls-3" points="32.63 32.53 32.63 32.56 32.65 32.55 32.63 32.53"/><path class="cls-4" d="M401.42,297.8a18.89,18.89,0,0,1,2.6-9.57l-11.8-6.81a32.6,32.6,0,0,0-.07,32.64l11.8-6.81A18.9,18.9,0,0,1,401.42,297.8Z" transform="translate(-387.8 -265.17)"/><path class="cls-5" d="M420.43,330.42V316.81a19,19,0,0,1-16.48-9.56l-11.8,6.81A32.6,32.6,0,0,0,420.43,330.42Z" transform="translate(-387.8 -265.17)"/><path class="cls-6" d="M448.51,314.18l-11.8-6.81a19,19,0,0,1-16.41,9.44v13.62A32.6,32.6,0,0,0,448.51,314.18Z" transform="translate(-387.8 -265.17)"/><polygon class="cls-3" points="32.5 32.72 32.5 32.69 32.48 32.7 32.5 32.72"/><path class="cls-7" d="M439.31,297.8a18.89,18.89,0,0,1-2.6,9.57l11.8,6.81a32.6,32.6,0,0,0,.07-32.64l-11.8,6.81A18.9,18.9,0,0,1,439.31,297.8Z" transform="translate(-387.8 -265.17)"/><path class="cls-8" d="M420.3,265.17v13.62a19,19,0,0,1,16.48,9.56l11.8-6.81A32.6,32.6,0,0,0,420.3,265.17Z" transform="translate(-387.8 -265.17)"/></svg>