<?xml version="1.0" encoding="utf-8"?>
<!-- Generator: Adobe Illustrator 15.0.0, SVG Export Plug-In . SVG Version: 6.00 Build 0)  -->
<!DOCTYPE svg PUBLIC "-//W3C//DTD SVG 1.1//EN" "http://www.w3.org/Graphics/SVG/1.1/DTD/svg11.dtd">
<svg version="1.1" id="layer" xmlns="http://www.w3.org/2000/svg" xmlns:xlink="http://www.w3.org/1999/xlink" x="0px" y="0px"
	 viewBox="0 0 32 32" enable-background="new 0 0 32 32" xml:space="preserve">
<g>
	<path fill="#4B96B8" d="M15.061,16.668c-0.574-0.018-1.115-0.069-1.622-0.154s-0.927-0.204-1.261-0.356v-1.723
		c0.229,0.082,0.451,0.154,0.668,0.215s0.439,0.114,0.668,0.158s0.469,0.079,0.721,0.105s0.527,0.042,0.826,0.048v-1.925
		c-0.369-0.053-0.735-0.125-1.099-0.215s-0.69-0.227-0.98-0.409s-0.526-0.422-0.708-0.721s-0.272-0.686-0.272-1.16
		c0-0.387,0.07-0.731,0.211-1.033s0.343-0.563,0.606-0.782s0.584-0.397,0.962-0.532s0.804-0.229,1.279-0.281V7h1.397v0.879
		c0.428,0.023,0.863,0.072,1.305,0.145s0.848,0.174,1.217,0.303v1.74c-0.902-0.293-1.743-0.457-2.522-0.492v1.951
		c0.369,0.059,0.734,0.136,1.094,0.233s0.683,0.237,0.967,0.422s0.516,0.426,0.694,0.725s0.268,0.683,0.268,1.151
		c0,0.75-0.262,1.339-0.787,1.767s-1.27,0.694-2.237,0.8v0.905h-1.397V16.668z M13.927,10.445c0,0.246,0.094,0.434,0.281,0.563
		s0.472,0.229,0.853,0.299V9.619c-0.428,0.047-0.724,0.142-0.888,0.286S13.927,10.229,13.927,10.445z M17.548,14.093
		c0-0.246-0.089-0.432-0.268-0.558s-0.453-0.221-0.822-0.286v1.652C17.185,14.808,17.548,14.538,17.548,14.093z"/>
</g>
<rect x="10" y="19" fill="#4B96B8" width="12" height="1"/>
<rect x="10" y="21" fill="#4B96B8" width="12" height="1"/>
<path fill="#4B96B8" d="M24,5l-2-2H6v26h2l2-2l2,2l2-2l2,2l2-2l2,2l2-2l2,2h2V7L24,5z M22,24.171l-2,2l-2-2l-2,2l-2-2l-2,2l-2-2
	l-2,2V5h13v3h3v18.171L22,24.171z"/>
</svg>
