<svg id="レイヤー_1" data-name="レイヤー 1" xmlns="http://www.w3.org/2000/svg" xmlns:xlink="http://www.w3.org/1999/xlink" viewBox="0 0 14.89 13.81"><defs><style>.cls-1{fill:#231815;stroke:#231815;stroke-miterlimit:10;stroke-width:0.1px;}.cls-2{fill:#a6afb5;}.cls-3{fill:url(#名称未設定グラデーション_4);}.cls-4{fill:url(#名称未設定グラデーション_4-2);}.cls-5{fill:#fff;}.cls-6{fill:#0068b7;}.cls-7{fill:#6fba2c;}.cls-8{fill:#e60039;}.cls-9{fill:#f6ab00;}</style><linearGradient id="名称未設定グラデーション_4" x1="478.19" y1="395.73" x2="480.91" y2="395.73" gradientUnits="userSpaceOnUse"><stop offset="0" stop-color="#eaf6fd"/><stop offset="1" stop-color="#c2ccd2"/></linearGradient><linearGradient id="名称未設定グラデーション_4-2" x1="484.36" y1="391.47" x2="485.43" y2="398.74" xlink:href="#名称未設定グラデーション_4"/></defs><title>icon_商品3</title><path class="cls-1" d="M486.79,389.89l-.24-.4-.16-1a1.51,1.51,0,0,0-.65-1.09,1.49,1.49,0,0,0-1.24-.19,1.8,1.8,0,0,0-.57.27,1.29,1.29,0,0,0-1.44-.44,2.54,2.54,0,0,0-1.81,2.12l-.06,1.54-2.1.52a.52.52,0,0,0-.42.55v7c0,.32.11.49.49.53l1.81.2.34.47c.12.17.22.18.48.11l7.45-2.07a.42.42,0,0,0,.33-.44v-7.25c0-.22-.11-.33-.36-.35Zm-3.72-.56.09.73-2,.5.06-1.48a1.85,1.85,0,0,1,1.33-1.55.84.84,0,0,1,1,.32A2,2,0,0,0,483.06,389.33Zm.52.07,0-.17a1.32,1.32,0,0,1,.05-.56Zm.5.43.06-1.51a1.4,1.4,0,0,0,0-.38,1.29,1.29,0,0,1,.47-.24,1,1,0,0,1,1.29.87l.1.79Z" transform="translate(-478.04 -386.92)"/><path class="cls-2" d="M486.69,390l-.37-.61L484,390l.07-1.66a1.13,1.13,0,0,0-1.53-1.19,2.42,2.42,0,0,0-1.73,2l-.07,1.64-2.27.57a.36.36,0,0,0-.18.13v7.21l3.52.63,4.53-2.21,2.51-6.94a.19.19,0,0,0-.15-.08Zm-5.67.72.07-1.64a2,2,0,0,1,1.41-1.65.92.92,0,0,1,1.24,1l-.07,1.66Z" transform="translate(-478.04 -386.92)"/><path class="cls-3" d="M480.92,400a.14.14,0,0,1-.08-.06l-.39-.53-2-.22a.31.31,0,0,1-.27-.31v-7.12a.45.45,0,0,1,.12-.32l2.14.25.47.58Z" transform="translate(-478.04 -386.92)"/><path class="cls-4" d="M488.89,397.61a.31.31,0,0,1-.23.31L481.1,400a.34.34,0,0,1-.18,0v-7.69l7.87-2.18a.19.19,0,0,1,.1.18Z" transform="translate(-478.04 -386.92)"/><path class="cls-2" d="M486.28,388.48a1.36,1.36,0,0,0-1.75-1.19,1.91,1.91,0,0,0-1.35,2l.49,3.22.29-.08-.49-3.22a1.56,1.56,0,0,1,1.1-1.65,1.11,1.11,0,0,1,1.42,1l.49,3.22.29-.08Z" transform="translate(-478.04 -386.92)"/><path class="cls-5" d="M489.76,394.73a1,1,0,0,1-1.86,0,11.31,11.31,0,0,0-3.16,1.89l1.34,1.92.33-.14v2.32h4.84v-2.32l.33.14,1.34-1.92A11.31,11.31,0,0,0,489.76,394.73Z" transform="translate(-478.04 -386.92)"/><polygon class="cls-6" points="10.69 11.2 9.01 11.2 9.01 13.15 9.37 13.15 10.69 13.15 10.69 11.2"/><polygon class="cls-7" points="10.92 11.2 10.92 13.15 12.25 13.15 12.6 13.15 12.6 11.2 10.92 11.2"/><path class="cls-8" d="M487.73,395.47a7.6,7.6,0,0,0-2.16,1.29l.7,1,.77-.48v.57h1.68v-2A1.52,1.52,0,0,1,487.73,395.47Z" transform="translate(-478.04 -386.92)"/><path class="cls-9" d="M490,395.47a7.6,7.6,0,0,1,2.16,1.29l-.7,1-.77-.48v.57H489v-2A1.52,1.52,0,0,0,490,395.47Z" transform="translate(-478.04 -386.92)"/></svg>