<svg id="レイヤー_1" data-name="レイヤー 1" xmlns="http://www.w3.org/2000/svg" viewBox="0 0 18 18"><defs><style>.cls-1{fill:#039ADB;}</style></defs><title>アートボード 7 のコピー</title><path class="cls-1" d="M16.64,6.93A1,1,0,0,0,16,6L10,3.4a2.52,2.52,0,0,0-2,0L2,6a1,1,0,0,0-.6.92h0v6.78A1.44,1.44,0,0,0,2.23,15L8,17.5a2.55,2.55,0,0,0,2,0L15.77,15a1.44,1.44,0,0,0,.87-1.32V6.93Zm-7,2.61a1.51,1.51,0,0,1-1.18,0L6.24,8.6l6.52-2.91,2.88,1.24ZM8.41,4.32a1.51,1.51,0,0,1,1.18,0l1.92.83L5,8.06,2.36,6.93h0Zm7,9.79L9.59,16.58a1.51,1.51,0,0,1-1.18,0L2.63,14.11a.45.45,0,0,1-.27-.4V8L8,10.45a2.44,2.44,0,0,0,2,0L15.64,8v5.69A.45.45,0,0,1,15.37,14.11Z"/></svg>