<svg id="レイヤー_1" data-name="レイヤー 1" xmlns="http://www.w3.org/2000/svg" viewBox="0 0 18 18"><defs><style>.cls-1{fill:#787878;}</style></defs><title>アートボード 7 のコピー 11</title><path class="cls-1" d="M10.1,16.36l-.51.22a1.51,1.51,0,0,1-1.18,0L2.63,14.11a.45.45,0,0,1-.27-.4V8L8,10.45a2.44,2.44,0,0,0,2,0L15.64,8V10.1a4.83,4.83,0,0,1,1,.42V7.11L17.7,3.25a.47.47,0,0,0-.15-.51A.49.49,0,0,0,17,2.66l-4.35,1.9L10,3.4a2.76,2.76,0,0,0-.85-.19L8.38.41A.71.71,0,0,0,7.47.05L.89,2.79A.68.68,0,0,0,.5,3.6l.88,3.14h0a1.08,1.08,0,0,0,0,.19v6.78A1.44,1.44,0,0,0,2.23,15L8,17.5a2.55,2.55,0,0,0,2,0l.6-.26A4.48,4.48,0,0,1,10.1,16.36ZM16.46,4l-.81,2.94h0L9.92,9.39l.45-2.73Zm-8,.33a1.51,1.51,0,0,1,1.18,0l1.83.79-1.7.74a.52.52,0,0,0-.29.38L8.87,9.64a1.2,1.2,0,0,1-.46-.11L2.36,6.93h0ZM2.19,5.91l-.65-2.3,6-2.5.6,2.25L8,3.4Z"/></svg>