<?xml version="1.0" encoding="utf-8"?>
<!-- Generator: Adobe Illustrator 15.0.0, SVG Export Plug-In . SVG Version: 6.00 Build 0)  -->
<!DOCTYPE svg PUBLIC "-//W3C//DTD SVG 1.1//EN" "http://www.w3.org/Graphics/SVG/1.1/DTD/svg11.dtd">
<svg version="1.1" id="layer" xmlns="http://www.w3.org/2000/svg" xmlns:xlink="http://www.w3.org/1999/xlink" x="0px" y="0px"
	 viewBox="0 0 32 32" enable-background="new 0 0 32 32" xml:space="preserve">
<path fill="#4B96B8" d="M10.931,11L27.75,8.574l-0.714-4.949L3.282,7.051l0.572,3.962C4.057,10.425,4.609,10,5.266,10
	c0.828,0,1.5,0.672,1.5,1.5S6.094,13,5.266,13c-0.534,0-1-0.282-1.266-0.703V28h24V11H10.931z M23.616,5.128l1.616,2.798
	l-1.979,0.285l-1.616-2.798L23.616,5.128z M18.667,5.842l1.616,2.798l-1.979,0.285l-1.616-2.798L18.667,5.842z M13.718,6.556
	l1.616,2.798L13.355,9.64l-1.616-2.798L13.718,6.556z M8.566,15H6.8L8,12h1.766L8.566,15z M8.406,10.354L6.79,7.556L8.77,7.27
	l1.616,2.798L8.406,10.354z M13.566,15h-2l1.2-3h2L13.566,15z M18.566,15h-2l1.2-3h2L18.566,15z M23.8,15h-2.234l1.2-3H25L23.8,15z"
	/>
</svg>
