<?xml version="1.0" encoding="utf-8"?>
<!-- Generator: Adobe Illustrator 15.0.0, SVG Export Plug-In . SVG Version: 6.00 Build 0)  -->
<!DOCTYPE svg PUBLIC "-//W3C//DTD SVG 1.1//EN" "http://www.w3.org/Graphics/SVG/1.1/DTD/svg11.dtd">
<svg version="1.1" id="layer" xmlns="http://www.w3.org/2000/svg" xmlns:xlink="http://www.w3.org/1999/xlink" x="0px" y="0px"
	 viewBox="0 0 32 32" enable-background="new 0 0 32 32" xml:space="preserve">
<path fill="#4B96B8" d="M27,8h-5.488c0.911-0.483,1.539-1.34,1.462-2.838C22.895,3.602,22.09,3,21.033,3
	C19.36,3,17.061,4.506,16,6.102C14.939,4.506,12.64,3,10.967,3C9.91,3,9.105,3.602,9.025,5.162C8.949,6.66,9.577,7.517,10.488,8H5v7
	h1v12h20V15h1V8z M25,13h-8v-3h8V13z M17.025,6.382C18.029,5.091,19.865,4,21.033,4c0.33,0,0.881,0,0.943,1.213
	c0.036,0.698-0.112,1.211-0.451,1.567c-0.479,0.504-1.407,0.771-2.683,0.771c-0.867,0-1.711-0.125-2.302-0.237
	c-0.004-0.023-0.012-0.046-0.018-0.068C16.623,6.981,16.79,6.685,17.025,6.382z M10.024,5.213C10.086,4,10.638,4,10.967,4
	c1.168,0,3.003,1.091,4.007,2.382c0.236,0.303,0.402,0.6,0.502,0.864c-0.005,0.022-0.013,0.045-0.018,0.068
	c-0.591,0.112-1.436,0.237-2.302,0.237c-1.276,0-2.204-0.267-2.683-0.771C10.136,6.424,9.988,5.912,10.024,5.213z M7,10h8v3H7V10z
	 M8,25V15h7v10H8z M24,25h-7V15h7V25z"/>
</svg>
