<?xml version="1.0" encoding="utf-8"?>
<!-- Generator: Adobe Illustrator 15.0.0, SVG Export Plug-In . SVG Version: 6.00 Build 0)  -->
<!DOCTYPE svg PUBLIC "-//W3C//DTD SVG 1.1//EN" "http://www.w3.org/Graphics/SVG/1.1/DTD/svg11.dtd">
<svg version="1.1" id="layer" xmlns="http://www.w3.org/2000/svg" xmlns:xlink="http://www.w3.org/1999/xlink" x="0px" y="0px"
	 viewBox="0 0 32 32" enable-background="new 0 0 32 32" xml:space="preserve">
<path fill="#4B96B8" d="M21.5,21c-1.052,0-1.984,0.473-2.626,1.208l-4.958-4.959C13.968,17.007,14,16.758,14,16.5
	s-0.032-0.507-0.084-0.749l4.958-4.959C19.516,11.527,20.448,12,21.5,12c1.934,0,3.5-1.566,3.5-3.5S23.434,5,21.5,5S18,6.566,18,8.5
	c0,0.535,0.129,1.036,0.344,1.489l-4.805,4.805C12.939,13.729,11.811,13,10.5,13C8.566,13,7,14.566,7,16.5S8.566,20,10.5,20
	c1.311,0,2.439-0.729,3.039-1.794l4.805,4.805C18.129,23.464,18,23.965,18,24.5c0,1.934,1.566,3.5,3.5,3.5s3.5-1.566,3.5-3.5
	S23.434,21,21.5,21z"/>
</svg>
