<?xml version="1.0" encoding="utf-8"?>
<!-- Generator: Adobe Illustrator 15.0.0, SVG Export Plug-In . SVG Version: 6.00 Build 0)  -->
<!DOCTYPE svg PUBLIC "-//W3C//DTD SVG 1.1//EN" "http://www.w3.org/Graphics/SVG/1.1/DTD/svg11.dtd">
<svg version="1.1" id="layer" xmlns="http://www.w3.org/2000/svg" xmlns:xlink="http://www.w3.org/1999/xlink" x="0px" y="0px"
	 viewBox="0 0 32 32" enable-background="new 0 0 32 32" xml:space="preserve">
<path fill="#4B96B8" d="M5.266,13c-0.534,0-1-0.282-1.266-0.703V28h10.769C13.66,26.446,13,24.55,13,22.5
	c0-3.049,1.45-5.761,3.69-7.5h-0.125l1.2-3h2l-0.654,1.636c1.013-0.389,2.107-0.612,3.251-0.629L22.766,12H25l-0.488,1.219
	c1.278,0.277,2.458,0.814,3.488,1.549V11H10.931L27.75,8.574l-0.714-4.949L3.282,7.051l0.572,3.962C4.057,10.425,4.609,10,5.266,10
	c0.828,0,1.5,0.672,1.5,1.5S6.094,13,5.266,13z M12.766,12h2l-1.2,3h-2L12.766,12z M23.616,5.128l1.616,2.798l-1.979,0.285
	l-1.616-2.798L23.616,5.128z M18.667,5.842l1.616,2.798l-1.979,0.285l-1.616-2.798L18.667,5.842z M13.718,6.556l1.616,2.798
	L13.355,9.64l-1.616-2.798L13.718,6.556z M8.566,15H6.8L8,12h1.766L8.566,15z M8.77,7.27l1.616,2.798l-1.979,0.285L6.79,7.556
	L8.77,7.27z"/>
<g>
	<path fill="#4B96B8" d="M22.5,16c3.59,0,6.5,2.914,6.5,6.5S26.09,29,22.5,29S16,26.086,16,22.5S18.91,16,22.5,16 M22.5,14.5
		c-4.411,0-8,3.589-8,8s3.589,8,8,8s8-3.589,8-8S26.911,14.5,22.5,14.5L22.5,14.5z"/>
</g>
<polygon fill="#4B96B8" points="22,18 22,22 19,22 19,24 24,24 24,18 "/>
</svg>
