<svg xmlns="http://www.w3.org/2000/svg" viewBox="0 0 85 85"><defs><style>.cls-1{fill:#787878;}</style></defs><title>アートボード 14 のコピー 32</title><g id="Design"><path class="cls-1" d="M39,53.23a6.2,6.2,0,0,1-4.43-1.84L24.19,41l5.34-5.35L39,45.14,66.43,17.71l5.34,5.34L43.42,51.39A6.18,6.18,0,0,1,39,53.23Z"/><path class="cls-1" d="M63.91,42.26V60.05a5.2,5.2,0,0,1-5.19,5.2H23.61a5.2,5.2,0,0,1-5.2-5.2V25a5.2,5.2,0,0,1,5.2-5.2H53L57.75,15H23.61A9.93,9.93,0,0,0,13.69,25v35.1A9.93,9.93,0,0,0,23.61,70H58.72a9.92,9.92,0,0,0,9.91-9.92V37.54Z"/></g></svg>