<?xml version="1.0" encoding="utf-8"?>
<!-- Generator: Adobe Illustrator 15.0.0, SVG Export Plug-In . SVG Version: 6.00 Build 0)  -->
<!DOCTYPE svg PUBLIC "-//W3C//DTD SVG 1.1//EN" "http://www.w3.org/Graphics/SVG/1.1/DTD/svg11.dtd">
<svg version="1.1" id="layer" xmlns="http://www.w3.org/2000/svg" xmlns:xlink="http://www.w3.org/1999/xlink" x="0px" y="0px"
	 viewBox="0 0 32 32" enable-background="new 0 0 32 32" xml:space="preserve">
<circle fill="#BBB88C" cx="11.5" cy="14.5" r="1.5"/>
<circle fill="#BBB88C" cx="16" cy="14.5" r="1.5"/>
<circle fill="#BBB88C" cx="20.5" cy="14.5" r="1.5"/>
<path fill="#BBB88C" d="M18.131,19H9.5C7.019,19,5,16.981,5,14.5S7.019,10,9.5,10h13c2.481,0,4.5,2.019,4.5,4.5
	c0,1.723-0.984,3.206-2.41,3.961l3.034,2.029C28.483,19.388,29,18.005,29,16.5c0-0.341,0-1.659,0-2c0-3.59-2.91-6.5-6.5-6.5h-13
	C5.91,8,3,10.91,3,14.5c0,0.341,0,1.659,0,2C3,20.09,5.91,23,9.5,23h9.375L18.131,19z"/>
<g>
	<path fill="#BBB88C" d="M28.862,23.122l-9.085-6.073c-0.096-0.063-0.217-0.064-0.311-0.002c-0.094,0.062-0.142,0.173-0.12,0.286
		l1.997,10.744c0.018,0.127,0.119,0.228,0.246,0.245c0.128,0.016,0.248-0.055,0.295-0.174l1.422-3.638l3.111,4.723l1.499-0.987
		l-3.114-4.727l3.911,0.129c0.128,0.004,0.24-0.079,0.276-0.202C29.023,23.322,28.972,23.189,28.862,23.122z"/>
</g>
</svg>
