<svg id="layer" xmlns="http://www.w3.org/2000/svg" viewBox="0 0 32 32"><defs><style>.cls-1{fill:#bbb88c;}</style></defs><title>02</title><polygon class="cls-1" points="2 2 2 4 2 6 4 6 4 4 6 4 6 2 2 2"/><rect class="cls-1" x="3" y="7" x="28" y="7" x="3" y="9" x="28" y="9" x="7" y="3" x="9" y="3" x="11" y="3" x="13" y="3" x="15" y="3" x="17" y="3" x="19" y="3" x="21" y="3" x="23" y="3" x="25" y="3" x="6" y="13" x="8" y="13" x="10" y="13" x="12" y="13" x="14" y="13" x="16" y="13" x="18" y="13" x="20" y="13" x="22" y="13" x="24" y="13" points="28 2 26 2 26 4 28 4 28 6 30 6 30 2 28 2"/><polygon class="cls-1" points="4 13 4 11 2 11 2 13 2 15 6 15 6 13 4 13"/><polygon class="cls-1" points="28 11 28 13 26 13 26 15 28 15 30 15 30 11 28 11"/><polygon class="cls-1" points="2 17 2 19 2 21 4 21 4 19 6 19 6 17 2 17"/><rect class="cls-1" x="3" y="22" x="28" y="22" x="3" y="24" x="28" y="24" x="7" y="18" x="9" y="18" x="11" y="18" x="13" y="18" x="15" y="18" x="17" y="18" x="19" y="18" x="21" y="18" x="23" y="18" x="25" y="18" x="6" y="28" x="8" y="28" x="10" y="28" x="12" y="28" x="14" y="28" x="16" y="28" x="18" y="28" x="20" y="28" x="22" y="28" x="24" y="28" points="28 17 26 17 26 19 28 19 28 21 30 21 30 17 28 17"/><polygon class="cls-1" points="4 28 4 26 2 26 2 28 2 30 6 30 6 28 4 28"/><polygon class="cls-1" points="28 26 28 28 26 28 26 30 28 30 30 30 30 26 28 26"/></svg>