<svg id="layer" xmlns="http://www.w3.org/2000/svg" viewBox="0 0 32 32"><defs><style>.cls-1{fill:#bbb88c;}</style></defs><title>05</title><rect class="cls-1" x="4" y="7" x="9" y="7" x="4" y="12" x="9" y="12" x="4" y="17" x="4" y="22" x="9" y="22" points="15.894 19.601 15.08 18.556 16.017 17.619 16.636 17 9 17 9 20 16.204 20 15.894 19.601"/><path class="cls-1" d="M30,24V22l-2.39-.42a4.7264,4.7264,0,0,0-.3243-.7969L28.9229,18.68,27.32,17.0771l-2.1045,1.6358A4.7983,4.7983,0,0,0,24.42,18.39L24,16H22l-.42,2.39a4.7983,4.7983,0,0,0-.7959.3233L18.68,17.0771,17.0771,18.68l1.6368,2.1035a4.7289,4.7289,0,0,0-.3243.7969L16,22v2l2.39.42a4.7289,4.7289,0,0,0,.3243.7969L17.0771,27.32,18.68,28.9229l2.1045-1.6358a4.7983,4.7983,0,0,0,.7959.3233L22,30h2l.42-2.39a4.7983,4.7983,0,0,0,.7959-.3233L27.32,28.9229,28.9229,27.32l-1.6368-2.1035A4.7264,4.7264,0,0,0,27.61,24.42Zm-9.6924-1A3.5587,3.5587,0,0,1,23,20.3076,3.5587,3.5587,0,0,1,25.6924,23,3.56,3.56,0,0,1,23,25.6924,3.56,3.56,0,0,1,20.3076,23Z"/></svg>