<svg id="layer" xmlns="http://www.w3.org/2000/svg" viewBox="0 0 32 32"><defs><style>.cls-1{fill:#bbb88c;}</style></defs><title>06</title><rect class="cls-1" x="4" y="7" x="9" y="7" x="4" y="12" x="4" y="17" x="4" y="22" d="M23.5,13.5A4.5214,4.5214,0,0,1,27.0176,15H28V12H9v3H19.9824A4.52,4.52,0,0,1,23.5,13.5Z"/><path class="cls-1" d="M29.582,30c0-.7812,1.6387-5.1045-1.5722-6.3281-2.1973-.8369-3.4278-.8965-2.6172-2.2754C27.791,17.3125,26.0762,15,23.5,15s-4.293,2.3125-1.8926,6.3965c.8086,1.3789-.42,1.4385-2.6172,2.2754C15.7793,24.8955,17.418,29.2188,17.418,30Z"/><path class="cls-1" d="M19.0488,17H9v3H19.3379A6.179,6.179,0,0,1,19.0488,17Z"/><path class="cls-1" d="M18.4561,22.27c.2636-.1006.5087-.1875.7441-.27H9v3h6.8154A4.2027,4.2027,0,0,1,18.4561,22.27Z"/></svg>