<svg id="layer" xmlns="http://www.w3.org/2000/svg" viewBox="0 0 32 32"><defs><style>.cls-1{fill:#bbb88c;}</style></defs><title>01</title><polygon class="cls-1" points="2 2 2 4 2 6 4 6 4 4 6 4 6 2 2 2"/><polygon class="cls-1" points="4 28 4 26 2 26 2 28 2 30 6 30 6 28 4 28"/><rect class="cls-1" x="3" y="6" x="7" y="3" x="9" y="3" x="11" y="3" x="13" y="3" x="15" y="3" x="17" y="3" x="19" y="3" x="21" y="3" x="23" y="3" x="25" y="3" x="3" y="8" x="3" y="10" x="3" y="12" x="3" y="14" x="3" y="16" x="3" y="18" x="3" y="20" x="3" y="22" x="3" y="24" x="24" y="28" x="22" y="28" x="20" y="28" x="18" y="28" x="16" y="28" x="14" y="28" x="12" y="28" x="10" y="28" x="8" y="28" x="6" y="28" x="28" y="7" x="28" y="9" x="28" y="11" x="28" y="13" x="28" y="15" x="28" y="17" x="28" y="19" x="28" y="21" x="28" y="23" x="28" y="25" points="28 2 26 2 26 4 28 4 28 6 30 6 30 2 28 2"/><polygon class="cls-1" points="28 26 28 28 26 28 26 30 28 30 30 30 30 26 28 26"/><path class="cls-1" d="M25,17.1992V14.8008l-2.3809-.2681a6.6906,6.6906,0,0,0-.8564-2.1846l1.45-1.8637L21.5156,8.7871l-1.8213,1.4175a6.699,6.699,0,0,0-2.24-.9429L17.1992,7H14.8008l-.2549,2.2617a6.699,6.699,0,0,0-2.24.9429L10.4844,8.7881,8.7871,10.4854l1.45,1.8627a6.6867,6.6867,0,0,0-.8564,2.1846L7,14.8008v2.3984l2.4551.2769A6.7087,6.7087,0,0,0,10.34,19.521L8.7871,21.5156l1.6973,1.6973,2.0371-1.5855a6.7047,6.7047,0,0,0,1.99.8033L14.8008,25h2.3984l.2891-2.5693a6.7047,6.7047,0,0,0,1.99-.8033l2.0371,1.5855,1.6973-1.6973L21.66,19.521a6.7087,6.7087,0,0,0,.8847-2.0449Zm-9,1.2764a2.625,2.625,0,1,1,2.625-2.625A2.6251,2.6251,0,0,1,16,18.4756Z"/></svg>