<?xml version="1.0" encoding="utf-8"?>
<!-- Generator: Adobe Illustrator 15.0.0, SVG Export Plug-In . SVG Version: 6.00 Build 0)  -->
<!DOCTYPE svg PUBLIC "-//W3C//DTD SVG 1.1//EN" "http://www.w3.org/Graphics/SVG/1.1/DTD/svg11.dtd">
<svg version="1.1" id="layer" xmlns="http://www.w3.org/2000/svg" xmlns:xlink="http://www.w3.org/1999/xlink" x="0px" y="0px"
	 viewBox="0 0 32 32" enable-background="new 0 0 32 32" xml:space="preserve">
<path fill="#BBB88C" d="M26.947,8C26.694,5.793,25.511,4,23,4c1.525,0.691,1.962,2.311,2.063,4H23l3,4l3-4H26.947z"/>
<path fill="#BBB88C" d="M10.916,24H13l-3-4l-3,4h2.036c0.266,2.181,1.449,3.944,3.938,3.944C11.466,27.26,11.023,25.669,10.916,24z"
	/>
<circle fill="#BBB88C" cx="9" cy="8" r="2"/>
<polygon fill="#BBB88C" points="16,12 18.592,12 15.455,8 10.461,15 7.909,11.091 5,15 5,5 20,5 20,12 22,12 22,3 3,3 3,19 5,19 
	16,19 "/>
<circle fill="#BBB88C" cx="21.5" cy="17.5" r="1.5"/>
<path fill="#BBB88C" d="M17,13v16h12V13H17z M25,18.374l-2.779,4.833L20.909,21L19,24v-9h8v6.851L25,18.374z"/>
</svg>
