<?xml version="1.0" encoding="utf-8"?>
<!-- Generator: Adobe Illustrator 15.0.0, SVG Export Plug-In . SVG Version: 6.00 Build 0)  -->
<!DOCTYPE svg PUBLIC "-//W3C//DTD SVG 1.1//EN" "http://www.w3.org/Graphics/SVG/1.1/DTD/svg11.dtd">
<svg version="1.1" id="layer" xmlns="http://www.w3.org/2000/svg" xmlns:xlink="http://www.w3.org/1999/xlink" x="0px" y="0px"
	 viewBox="0 0 32 32" enable-background="new 0 0 32 32" xml:space="preserve">
<path fill="#4B96B8" d="M26,20l-5,3l-9-4H7v-1H3v11h4v-1h1l5,2h8l9-9L26,20z M20.586,29h-7.394L8,27H7v-7h4.788l8.223,3.654
	l-1.055,1.715l-3.756-1.628l-0.397,0.918l4.551,1.972l1.58-2.566l5.227-2.994l1.885,0.471L20.586,29z"/>
<g>
	<g>
		<path fill="#4B96B8" d="M15.059,7.254c0,0.304,0.101,0.535,0.301,0.694c0.201,0.159,0.504,0.282,0.912,0.369V6.233
			c-0.457,0.059-0.774,0.176-0.949,0.353C15.147,6.764,15.059,6.986,15.059,7.254z"/>
	</g>
	<g>
		<path fill="#4B96B8" d="M17,1c-4.971,0-9,3.806-9,8.5s4.029,8.5,9,8.5c4.97,0,9-3.806,9-8.5S21.971,1,17,1z M20.158,13.895
			c-0.561,0.528-1.357,0.857-2.392,0.988V16h-1.495v-1.063c-0.614-0.021-1.192-0.085-1.734-0.189
			c-0.542-0.105-0.991-0.251-1.349-0.44V12.18c0.245,0.102,0.483,0.19,0.714,0.266c0.231,0.076,0.47,0.141,0.715,0.195
			c0.245,0.054,0.501,0.097,0.771,0.13c0.27,0.033,0.564,0.053,0.883,0.06v-2.377c-0.395-0.065-0.786-0.153-1.174-0.265
			c-0.389-0.113-0.738-0.281-1.049-0.505c-0.31-0.224-0.563-0.521-0.756-0.89C13.097,8.426,13,7.948,13,7.362
			c0-0.478,0.075-0.902,0.226-1.275c0.15-0.372,0.367-0.694,0.649-0.965c0.282-0.271,0.625-0.49,1.029-0.657
			c0.405-0.166,0.861-0.282,1.368-0.347V3h1.495v1.085c0.458,0.029,0.922,0.089,1.396,0.179s0.907,0.215,1.303,0.375v2.148
			C19.5,6.425,18.6,6.223,17.766,6.18v2.409c0.394,0.072,0.785,0.168,1.17,0.288s0.729,0.293,1.034,0.521
			c0.304,0.228,0.551,0.526,0.742,0.896C20.904,10.661,21,11.135,21,11.714C21,12.64,20.719,13.367,20.158,13.895z"/>
	</g>
	<g>
		<path fill="#4B96B8" d="M17.766,10.716v2.04c0.777-0.115,1.166-0.449,1.166-0.998c0-0.304-0.096-0.533-0.287-0.689
			C18.453,10.912,18.16,10.795,17.766,10.716z"/>
	</g>
</g>
</svg>
