<?xml version="1.0" encoding="utf-8"?>
<!-- Generator: Adobe Illustrator 15.0.0, SVG Export Plug-In . SVG Version: 6.00 Build 0)  -->
<!DOCTYPE svg PUBLIC "-//W3C//DTD SVG 1.1//EN" "http://www.w3.org/Graphics/SVG/1.1/DTD/svg11.dtd">
<svg version="1.1" id="layer" xmlns="http://www.w3.org/2000/svg" xmlns:xlink="http://www.w3.org/1999/xlink" x="0px" y="0px"
	 viewBox="0 0 32 32" enable-background="new 0 0 32 32" xml:space="preserve">
<rect x="9" y="6" fill="#4B96B8" width="5" height="1"/>
<rect x="9" y="13" fill="#4B96B8" width="14" height="1"/>
<rect x="20" y="6" fill="#4B96B8" width="1" height="1"/>
<rect x="18" y="6" fill="#4B96B8" width="1" height="1"/>
<rect x="22" y="6" fill="#4B96B8" width="1" height="1"/>
<rect x="9" y="8" fill="#4B96B8" width="14" height="4"/>
<path fill="#4B96B8" d="M27,9.654V2H5v7.53L2,12v17h28V12L27,9.654z M7,4h18v9.022l-7.219,5.103l-1.141-0.893
	c-0.371-0.31-0.909-0.31-1.28,0l-1.03,0.858L11.345,16H17v-1H9.916L7,12.958V4z M4,13.601l8.542,5.899L4,26.698V13.601z M6.762,27
	L16,19.313L25.238,27H6.762z M19.609,19.531l4.981-3.658L28,13.601l-0.016,13.035L19.609,19.531z"/>
</svg>
