<svg id="layer" xmlns="http://www.w3.org/2000/svg" viewBox="0 0 32 32"><defs><style>.cls-1{fill:#95bea0;}</style></defs><title>08</title><path class="cls-1" d="M3,9V29H29V9Zm2,2H27v3H5ZM5,27V16H27V27Z"/><rect class="cls-1" x="21" y="12" x="23" y="12" x="25" y="12" x="5" y="6" x="7" y="3" x="6" y="17" x="9" y="17" x="6" y="25" x="9" y="25" x="12" y="25" x="15" y="25" x="18" y="25" x="21" y="25" x="24" y="25" x="12" y="17" x="15" y="17" x="18" y="17" x="21" y="17" x="24" y="17" x="6" y="19" x="6" y="22" x="25" y="19" x="25" y="22" x="9" y="20" x="13" y="20" width="10" height="3"/></svg>