<?xml version="1.0" encoding="utf-8"?>
<!-- Generator: Adobe Illustrator 15.0.0, SVG Export Plug-In . SVG Version: 6.00 Build 0)  -->
<!DOCTYPE svg PUBLIC "-//W3C//DTD SVG 1.1//EN" "http://www.w3.org/Graphics/SVG/1.1/DTD/svg11.dtd">
<svg version="1.1" id="layer" xmlns="http://www.w3.org/2000/svg" xmlns:xlink="http://www.w3.org/1999/xlink" x="0px" y="0px"
	 viewBox="0 0 32 32" enable-background="new 0 0 32 32" xml:space="preserve">
<polygon fill="#4B96B8" points="13,16 10,16 10,13 8,13 8,16 5,16 5,18 8,18 8,21 10,21 10,18 13,18 "/>
<g>
	<path fill="#4B96B8" d="M22.319,21.958c-1.535,1.442-2.081,1.558-2.212,1.558c-0.043-0.083-0.186-0.515,0.258-2.181
		c0.322-1.209,0.823-2.614,1.265-3.854c0.312-0.872,0.58-1.625,0.725-2.141c0.372-1.327,0.333-2.263-0.121-2.859
		c-0.21-0.276-0.615-0.607-1.352-0.607c-1.618,0-3.914,1.637-4.659,2.977c-0.448,0.805-0.303,1.358-0.103,1.681l0.314,0.506
		l0.426-0.417c1.244-1.215,1.773-1.465,1.951-1.516c0.155,0.618-0.662,3.046-1.11,4.377c-0.257,0.766-0.5,1.488-0.658,2.061
		c-0.566,2.058-0.56,3.426,0.019,4.184c0.308,0.405,0.771,0.619,1.338,0.619c1.81,0,4.266-2.128,5.238-3.044L24,22.958l-1.348-1.313
		L22.319,21.958z"/>
	<circle fill="#4B96B8" cx="21.129" cy="7.672" r="2.672"/>
</g>
</svg>
