<?xml version="1.0" encoding="utf-8"?>
<!-- Generator: Adobe Illustrator 15.0.0, SVG Export Plug-In . SVG Version: 6.00 Build 0)  -->
<!DOCTYPE svg PUBLIC "-//W3C//DTD SVG 1.1//EN" "http://www.w3.org/Graphics/SVG/1.1/DTD/svg11.dtd">
<svg version="1.1" id="layer" xmlns="http://www.w3.org/2000/svg" xmlns:xlink="http://www.w3.org/1999/xlink" x="0px" y="0px"
	 viewBox="0 0 32 32" enable-background="new 0 0 32 32" xml:space="preserve">
<path fill="#4B96B8" d="M15.737,17c0-0.52,1.032-3.404-0.991-4.219c-1.385-0.559-2.159-0.598-1.649-1.517
	C14.608,8.543,13.528,7,11.904,7S9.2,8.543,10.712,11.265c0.51,0.919-0.265,0.958-1.648,1.517C7.04,13.596,8.072,16.48,8.072,17
	H15.737z"/>
<path fill="#4B96B8" d="M22.347,19.48h-1.472l-1.747-1.637C20.297,16.325,21,14.428,21,12.363c0-4.971-4.029-9-9-9s-9,4.029-9,9
	s4.029,9,9,9c2.065,0,3.962-0.703,5.48-1.873l1.637,1.745v1.477L26.622,30l3.086-3.018L22.347,19.48z M12,19.363c-3.86,0-7-3.14-7-7
	s3.14-7,7-7s7,3.14,7,7S15.86,19.363,12,19.363z"/>
</svg>
