<?xml version="1.0" encoding="utf-8"?>
<!-- Generator: Adobe Illustrator 15.0.0, SVG Export Plug-In . SVG Version: 6.00 Build 0)  -->
<!DOCTYPE svg PUBLIC "-//W3C//DTD SVG 1.1//EN" "http://www.w3.org/Graphics/SVG/1.1/DTD/svg11.dtd">
<svg version="1.1" id="layer" xmlns="http://www.w3.org/2000/svg" xmlns:xlink="http://www.w3.org/1999/xlink" x="0px" y="0px"
	 viewBox="0 0 32 32" enable-background="new 0 0 32 32" xml:space="preserve">
<g>
	<circle fill-rule="evenodd" clip-rule="evenodd" fill="#4B96B8" cx="23.5" cy="18.5" r="2.5"/>
	<circle fill-rule="evenodd" clip-rule="evenodd" fill="#4B96B8" cx="18.5" cy="18.5" r="2.5"/>
</g>
<path fill-rule="evenodd" clip-rule="evenodd" fill="#4B96B8" d="M27,6H5C3.346,6,2,7.346,2,9v14c0,1.654,1.346,3,3,3h22
	c1.654,0,3-1.346,3-3V9C30,7.346,28.654,6,27,6z M5,8h22c0.552,0,1,0.448,1,1v1H4V9C4,8.448,4.448,8,5,8z M27,24H5
	c-0.552,0-1-0.448-1-1V13h24v10C28,23.552,27.552,24,27,24z"/>
<rect x="6" y="16" fill-rule="evenodd" clip-rule="evenodd" fill="#4B96B8" width="7" height="1"/>
<rect x="6" y="18" fill-rule="evenodd" clip-rule="evenodd" fill="#4B96B8" width="7" height="1"/>
<rect x="6" y="20" fill-rule="evenodd" clip-rule="evenodd" fill="#4B96B8" width="7" height="1"/>
</svg>
