<?xml version="1.0" encoding="utf-8"?>
<!-- Generator: Adobe Illustrator 15.0.0, SVG Export Plug-In . SVG Version: 6.00 Build 0)  -->
<!DOCTYPE svg PUBLIC "-//W3C//DTD SVG 1.1//EN" "http://www.w3.org/Graphics/SVG/1.1/DTD/svg11.dtd">
<svg version="1.1" id="layer" xmlns="http://www.w3.org/2000/svg" xmlns:xlink="http://www.w3.org/1999/xlink" x="0px" y="0px"
	 viewBox="0 0 32 32" enable-background="new 0 0 32 32" xml:space="preserve">
<path fill-rule="evenodd" clip-rule="evenodd" fill="#93C0D4" d="M14.488,8.59h7.897c4.24,0,5.838,2.146,5.59,5.306
	c-0.405,5.206-3.553,8.086-7.729,8.086h-2.108c-0.571,0-0.957,0.378-1.112,1.405l-0.904,5.97c-0.059,0.388-0.263,0.615-0.569,0.644
	h-4.953c-0.465,0-0.631-0.357-0.51-1.129l3.025-19.148C13.235,8.955,13.654,8.59,14.488,8.59"/>
<path fill-rule="evenodd" clip-rule="evenodd" fill="#6EABC6" d="M9.551,2h7.904c2.227,0,4.867,0.072,6.635,1.63
	c1.18,1.042,1.799,2.7,1.656,4.48c-0.484,6.037-4.096,9.418-8.938,9.418h-3.898c-0.664,0-1.104,0.438-1.291,1.631l-1.088,6.921
	c-0.07,0.449-0.267,0.714-0.621,0.746h-4.87c-0.539,0-0.732-0.414-0.591-1.31L7.956,3.313C8.096,2.424,8.584,2,9.551,2"/>
<path fill-rule="evenodd" clip-rule="evenodd" fill="#4B96B8" d="M11.733,18.461l1.381-8.738c0.121-0.768,0.54-1.133,1.374-1.133
	h7.897c1.309,0,2.365,0.204,3.192,0.58c-0.794,5.372-4.269,8.358-8.819,8.358H12.86C12.346,17.528,11.963,17.79,11.733,18.461"/>
</svg>
