<?xml version="1.0" encoding="utf-8"?>
<!-- Generator: Adobe Illustrator 15.0.0, SVG Export Plug-In . SVG Version: 6.00 Build 0)  -->
<!DOCTYPE svg PUBLIC "-//W3C//DTD SVG 1.1//EN" "http://www.w3.org/Graphics/SVG/1.1/DTD/svg11.dtd">
<svg version="1.1" id="layer" xmlns="http://www.w3.org/2000/svg" xmlns:xlink="http://www.w3.org/1999/xlink" x="0px" y="0px"
	 viewBox="0 0 32 32" enable-background="new 0 0 32 32" xml:space="preserve">
<rect x="10" y="8" fill="#4B96B8" width="2" height="1"/>
<rect x="13" y="8" fill="#4B96B8" width="9" height="1"/>
<rect x="10" y="11" fill="#4B96B8" width="2" height="1"/>
<rect x="13" y="11" fill="#4B96B8" width="9" height="1"/>
<rect x="10" y="14" fill="#4B96B8" width="2" height="1"/>
<rect x="10" y="17" fill="#4B96B8" width="2" height="1"/>
<rect x="13" y="14" fill="#4B96B8" width="7" height="1"/>
<rect x="13" y="17" fill="#4B96B8" width="4" height="1"/>
<rect x="12" y="23" fill="#4B96B8" width="2" height="1"/>
<polygon fill="#4B96B8" points="13,21 15,21 15,20 13,20 10,20 10,21 10,24 11,24 14,24 14,23 11,23 11,21 "/>
<polygon fill="#4B96B8" points="19.243,22.585 15,24 16.415,19.757 "/>
<polygon fill="#4B96B8" points="24,20 24,23 20.243,23 20,23.243 20,27 8,27 8,5 24,5 24,10 26,8 26,3 6,3 6,29 22,29 26,25 26,18 
	"/>
<rect x="26.435" y="9.565" transform="matrix(-0.7071 -0.7071 0.7071 -0.7071 41.0717 38.1419)" fill="#4B96B8" width="4" height="2"/>
<rect x="20.779" y="10.222" transform="matrix(-0.7071 -0.7071 0.7071 -0.7071 27.415 43.799)" fill="#4B96B8" width="4" height="12"/>
</svg>
