<?xml version="1.0" encoding="utf-8"?>
<!-- Generator: Adobe Illustrator 15.0.0, SVG Export Plug-In . SVG Version: 6.00 Build 0)  -->
<!DOCTYPE svg PUBLIC "-//W3C//DTD SVG 1.1//EN" "http://www.w3.org/Graphics/SVG/1.1/DTD/svg11.dtd">
<svg version="1.1" id="layer" xmlns="http://www.w3.org/2000/svg" xmlns:xlink="http://www.w3.org/1999/xlink" x="0px" y="0px"
	 viewBox="0 0 32 32" enable-background="new 0 0 32 32" xml:space="preserve">
<rect x="16.057" y="9.528" transform="matrix(0.7071 0.7071 -0.7071 0.7071 12.0503 -9.0919)" fill="#4B96B8" width="1.885" height="0.943"/>
<rect x="18.057" y="11.528" transform="matrix(0.7071 0.7071 -0.7071 0.7071 14.0503 -9.9203)" fill="#4B96B8" width="1.885" height="0.943"/>
<rect x="20.057" y="13.528" transform="matrix(0.7071 0.7071 -0.7071 0.7071 16.0503 -10.7487)" fill="#4B96B8" width="1.885" height="0.943"/>
<rect x="22.057" y="15.528" transform="matrix(0.7071 0.7071 -0.7071 0.7071 18.0503 -11.5772)" fill="#4B96B8" width="1.885" height="0.943"/>
<rect x="11.797" y="16.004" transform="matrix(0.7071 0.7071 -0.7071 0.7071 16.2972 -6.3362)" fill="#4B96B8" width="8" height="1"/>
<rect x="9.333" y="18.469" transform="matrix(0.7071 0.7071 -0.7071 0.7071 17.3182 -3.8718)" fill="#4B96B8" width="8" height="1"/>
<path fill="#4B96B8" d="M26.757,8.373l-0.028-0.028c-0.096,0.133-0.204,0.261-0.325,0.382c-0.559,0.559-1.265,0.85-1.912,0.85
	c-0.484,0-0.936-0.163-1.27-0.497c-0.781-0.781-0.623-2.206,0.354-3.182c0.121-0.121,0.249-0.229,0.382-0.325l-0.028-0.028
	l-4.243-4.243L1.302,19.687l4.243,4.243l0.028,0.028c0.096-0.133,0.204-0.261,0.325-0.382c0.559-0.559,1.265-0.85,1.912-0.85
	c0.484,0,0.936,0.163,1.27,0.497c0.781,0.781,0.623,2.206-0.354,3.182c-0.121,0.121-0.249,0.229-0.382,0.325l0.028,0.028L12.615,31
	L31,12.615L26.757,8.373z M11.042,26.598c0.271-0.516,0.445-1.071,0.508-1.637c0.133-1.2-0.252-2.349-1.056-3.152
	c-0.698-0.698-1.651-1.083-2.684-1.083c-0.72,0-1.444,0.188-2.105,0.535L4.13,19.687L15.075,8.742l0.409,0.409l0.667-0.667
	l-0.409-0.409l3.944-3.945l1.574,1.574c-0.271,0.516-0.445,1.071-0.508,1.637c-0.133,1.2,0.252,2.349,1.056,3.152
	c0.698,0.698,1.651,1.083,2.684,1.083c0.72,0,1.444-0.188,2.105-0.535l1.574,1.574L12.615,28.171L11.042,26.598z"/>
</svg>
