<?xml version="1.0" encoding="utf-8"?>
<!-- Generator: Adobe Illustrator 15.0.0, SVG Export Plug-In . SVG Version: 6.00 Build 0)  -->
<!DOCTYPE svg PUBLIC "-//W3C//DTD SVG 1.1//EN" "http://www.w3.org/Graphics/SVG/1.1/DTD/svg11.dtd">
<svg version="1.1" id="layer" xmlns="http://www.w3.org/2000/svg" xmlns:xlink="http://www.w3.org/1999/xlink" x="0px" y="0px"
	 viewBox="0 0 32 32" enable-background="new 0 0 32 32" xml:space="preserve">
<rect x="21" y="6" fill="#4B96B8" width="1" height="1"/>
<rect x="23" y="6" fill="#4B96B8" width="1" height="1"/>
<rect x="25" y="6" fill="#4B96B8" width="1" height="1"/>
<path fill="#4B96B8" d="M13.838,17.996l2.151-2.129c0.415-1.253,0.106-2.722-0.931-3.759c-1.035-1.036-2.505-1.344-3.759-0.93
	l1.787,1.787l-0.131,1.99l-1.99,0.131l-1.787-1.787c-0.414,1.253-0.105,2.723,0.931,3.758
	C11.138,18.087,12.591,18.396,13.838,17.996z"/>
<path fill="#4B96B8" d="M21,26H5V10h22v9h2V3H3v25h18V26z M5,5h22v3H5V5z"/>
<path fill="#4B96B8" d="M20.182,23.187c0-0.904,0.243-1.743,0.635-2.492l-2.963-2.963L24,12.438l-0.76-0.773L8.76,24.335L9.414,25
	l6.16-5.305l4.708,4.708c0.015,0.015,0.033,0.024,0.049,0.039C20.234,24.04,20.182,23.62,20.182,23.187z"/>
<g>
	<path fill="#4B96B8" d="M26.5,20c-2.485,0-4.5,2.015-4.5,4.5c0,1.456,0.703,2.737,1.775,3.56L23,30l1,1l0.92-2.301
		C25.413,28.886,25.941,29,26.5,29c2.485,0,4.5-2.015,4.5-4.5S28.985,20,26.5,20z M28.5,25c-0.828,0-1.5-0.672-1.5-1.5
		s0.672-1.5,1.5-1.5s1.5,0.672,1.5,1.5S29.328,25,28.5,25z"/>
</g>
</svg>
