<?xml version="1.0" encoding="utf-8"?>
<!-- Generator: Adobe Illustrator 15.0.0, SVG Export Plug-In . SVG Version: 6.00 Build 0)  -->
<!DOCTYPE svg PUBLIC "-//W3C//DTD SVG 1.1//EN" "http://www.w3.org/Graphics/SVG/1.1/DTD/svg11.dtd">
<svg version="1.1" id="layer" xmlns="http://www.w3.org/2000/svg" xmlns:xlink="http://www.w3.org/1999/xlink" x="0px" y="0px"
	 viewBox="0 0 32 32" enable-background="new 0 0 32 32" xml:space="preserve">
<path fill="#4B96B8" d="M3,3v25h26V3H3z M5,5h22v3H5V5z M5,26V10h22v16H5z"/>
<rect x="21" y="6" fill="#4B96B8" width="1" height="1"/>
<rect x="23" y="6" fill="#4B96B8" width="1" height="1"/>
<rect x="25" y="6" fill="#4B96B8" width="1" height="1"/>
<g>
	<path fill="#4B96B8" d="M23,19v-2l-2.39-0.419c-0.085-0.277-0.192-0.543-0.324-0.797l1.637-2.104l-1.603-1.603l-2.104,1.636
		c-0.254-0.131-0.519-0.238-0.796-0.324L17,11h-2l-0.419,2.39c-0.277,0.085-0.542,0.192-0.796,0.324l-2.104-1.636l-1.603,1.603
		l1.637,2.104c-0.132,0.254-0.239,0.52-0.324,0.797L9,17v2l2.39,0.419c0.085,0.277,0.192,0.543,0.324,0.797l-1.637,2.104
		l1.603,1.603l2.104-1.636c0.254,0.131,0.519,0.238,0.796,0.324L15,25h2l0.419-2.39c0.277-0.085,0.542-0.192,0.796-0.324
		l2.104,1.636l1.603-1.603l-1.637-2.104c0.132-0.254,0.239-0.52,0.324-0.797L23,19z M16,20.5c-1.381,0-2.5-1.119-2.5-2.5
		s1.119-2.5,2.5-2.5s2.5,1.119,2.5,2.5S17.381,20.5,16,20.5z"/>
</g>
</svg>
