<?xml version="1.0" encoding="utf-8"?>
<!-- Generator: Adobe Illustrator 15.0.0, SVG Export Plug-In . SVG Version: 6.00 Build 0)  -->
<!DOCTYPE svg PUBLIC "-//W3C//DTD SVG 1.1//EN" "http://www.w3.org/Graphics/SVG/1.1/DTD/svg11.dtd">
<svg version="1.1" id="layer" xmlns="http://www.w3.org/2000/svg" xmlns:xlink="http://www.w3.org/1999/xlink" x="0px" y="0px"
	 viewBox="0 0 32 32" enable-background="new 0 0 32 32" xml:space="preserve">
<path fill="#4B96B8" d="M3,3v25h26V3H3z M5,5h22v3H5V5z M5,26V10h22v16H5z"/>
<rect x="21" y="6" fill="#4B96B8" width="1" height="1"/>
<rect x="23" y="6" fill="#4B96B8" width="1" height="1"/>
<rect x="25" y="6" fill="#4B96B8" width="1" height="1"/>
<g>
	<path fill="#4B96B8" d="M8.111,19.771c0.491,0.515,1.079,1.109,1.746,1.687l1.542-1.327c-0.682-0.561-1.295-1.167-1.839-1.739
		c-0.129-0.135-0.252-0.262-0.377-0.391c0.115-0.118,0.227-0.23,0.347-0.356c1.507-1.566,3.384-3.499,6.47-3.564
		c0.74,0.016,1.401,0.151,2.012,0.354l1.7-1.464c-1.059-0.511-2.273-0.873-3.712-0.896c-3.94,0.065-6.327,2.538-7.911,4.184
		c-0.361,0.375-0.689,0.718-0.998,0.989L7,18l0.091,0.752C7.392,19.016,7.725,19.366,8.111,19.771z"/>
	<path fill="#4B96B8" d="M24.909,17.248c-0.309-0.271-0.637-0.614-0.998-0.989c-0.573-0.596-1.256-1.298-2.075-1.957L24,12.438
		l-0.76-0.773L8.76,24.335L9.414,25l2.451-2.111c1.15,0.63,2.508,1.078,4.135,1.105c3.924-0.066,6.307-2.562,7.889-4.223
		c0.386-0.405,0.719-0.755,1.02-1.019L25,18L24.909,17.248z M22.44,18.392c-1.504,1.58-3.376,3.529-6.44,3.596
		c-0.93-0.02-1.738-0.228-2.472-0.531l0.998-0.859C14.963,20.846,15.461,21,16,21c1.656,0,3-1.344,3-3
		c0-0.381-0.078-0.742-0.208-1.077l1.494-1.287c0.834,0.625,1.546,1.347,2.184,2.009c0.121,0.125,0.232,0.238,0.347,0.356
		C22.692,18.13,22.569,18.257,22.44,18.392z"/>
	<path fill="#4B96B8" d="M16,15c-1.656,0-3,1.344-3,3c0,0.233,0.037,0.457,0.09,0.674l4.008-3.452C16.758,15.083,16.39,15,16,15z"/>
</g>
</svg>
