<?xml version="1.0" encoding="utf-8"?>
<!-- Generator: Adobe Illustrator 15.0.0, SVG Export Plug-In . SVG Version: 6.00 Build 0)  -->
<!DOCTYPE svg PUBLIC "-//W3C//DTD SVG 1.1//EN" "http://www.w3.org/Graphics/SVG/1.1/DTD/svg11.dtd">
<svg version="1.1" id="layer" xmlns="http://www.w3.org/2000/svg" xmlns:xlink="http://www.w3.org/1999/xlink" x="0px" y="0px"
	 viewBox="0 0 32 32" enable-background="new 0 0 32 32" xml:space="preserve">
<rect x="22" y="7" fill="#4B96B8" width="1" height="1"/>
<rect x="24" y="7" fill="#4B96B8" width="1" height="1"/>
<rect x="26" y="7" fill="#4B96B8" width="1" height="1"/>
<rect x="8" y="12" fill="#4B96B8" width="2" height="1"/>
<rect x="5" y="12" fill="#4B96B8" width="2" height="1"/>
<rect x="2" y="12" fill="#4B96B8" width="2" height="1"/>
<rect x="10" y="27" fill="#4B96B8" width="2" height="1"/>
<rect x="7" y="27" fill="#4B96B8" width="2" height="1"/>
<rect x="4" y="27" fill="#4B96B8" width="2" height="1"/>
<rect x="19" y="27" fill="#4B96B8" width="2" height="1"/>
<rect x="16" y="27" fill="#4B96B8" width="2" height="1"/>
<rect x="13" y="27" fill="#4B96B8" width="2" height="1"/>
<rect x="2" y="14" fill="#4B96B8" width="1" height="2"/>
<rect x="2" y="17" fill="#4B96B8" width="1" height="2"/>
<rect x="2" y="20" fill="#4B96B8" width="1" height="2"/>
<rect x="2" y="23" fill="#4B96B8" width="1" height="2"/>
<rect x="20" y="21" fill="#4B96B8" width="1" height="2"/>
<rect x="20" y="24" fill="#4B96B8" width="1" height="2"/>
<rect x="2" y="26" fill="#4B96B8" width="1" height="2"/>
<path fill="#4B96B8" d="M11,4v9h2v-2h15v8h-9v2h11V4H11z M28,9H13V6h15V9z"/>
<g>
	<polygon fill="#4B96B8" points="16.462,23.23 18,14 8.768,15.538 11.077,17.847 8,20.923 11.077,24 14.153,20.923 	"/>
</g>
</svg>
