<?xml version="1.0" encoding="utf-8"?>
<!-- Generator: Adobe Illustrator 15.0.0, SVG Export Plug-In . SVG Version: 6.00 Build 0)  -->
<!DOCTYPE svg PUBLIC "-//W3C//DTD SVG 1.1//EN" "http://www.w3.org/Graphics/SVG/1.1/DTD/svg11.dtd">
<svg version="1.1" id="layer" xmlns="http://www.w3.org/2000/svg" xmlns:xlink="http://www.w3.org/1999/xlink" x="0px" y="0px"
	 viewBox="0 0 32 32" enable-background="new 0 0 32 32" xml:space="preserve">
<g>
	<path fill="#4B96B8" d="M5.266,13c-0.534,0-1-0.282-1.266-0.703V28h3.438C7.159,27.217,7,26.377,7,25.5
		c0-3.784,2.819-6.914,6.467-7.42C13.17,17.274,13,16.407,13,15.5c0-0.169,0.014-0.334,0.025-0.5h-1.459l1.2-3h1.105
		c0.187-0.352,0.404-0.684,0.643-1h-3.583l4.074-0.588c0.821-0.886,1.851-1.572,3.013-1.981l-1.331-2.303l1.979-0.286l1.263,2.187
		C20.119,8.015,20.308,8,20.5,8c1.402,0,2.711,0.394,3.835,1.066l3.415-0.493l-0.714-4.949L3.282,7.051l0.572,3.962
		C4.057,10.425,4.609,10,5.266,10c0.828,0,1.5,0.672,1.5,1.5S6.094,13,5.266,13z M23.616,5.128l1.616,2.798l-1.979,0.285
		l-1.616-2.798L23.616,5.128z M13.718,6.556l1.616,2.798L13.355,9.64l-1.616-2.798L13.718,6.556z M8.566,15H6.8L8,12h1.766L8.566,15
		z M8.77,7.27l1.616,2.798l-1.979,0.285L6.79,7.556L8.77,7.27z"/>
</g>
<g>
	<path fill="#4B96B8" d="M25.5,19.25c-0.004,0-0.008,0-0.012,0c0.789-1.046,1.262-2.342,1.262-3.75c0-3.446-2.804-6.25-6.25-6.25
		s-6.25,2.804-6.25,6.25c0,1.453,0.502,2.789,1.337,3.851c-0.354-0.063-0.716-0.101-1.087-0.101c-3.446,0-6.25,2.804-6.25,6.25
		s2.804,6.25,6.25,6.25c2.374,0,4.442-1.331,5.5-3.285c1.058,1.954,3.126,3.285,5.5,3.285c3.446,0,6.25-2.804,6.25-6.25
		S28.946,19.25,25.5,19.25z M20.5,10.75c2.619,0,4.75,2.131,4.75,4.75s-2.131,4.75-4.75,4.75s-4.75-2.131-4.75-4.75
		S17.881,10.75,20.5,10.75z M20.512,21.75c-0.188,0.249-0.363,0.509-0.512,0.785c-0.169-0.313-0.369-0.607-0.587-0.886
		c0.354,0.063,0.716,0.101,1.087,0.101C20.504,21.75,20.508,21.75,20.512,21.75z M14.5,30.25c-2.619,0-4.75-2.131-4.75-4.75
		s2.131-4.75,4.75-4.75s4.75,2.131,4.75,4.75S17.119,30.25,14.5,30.25z M25.5,30.25c-2.619,0-4.75-2.131-4.75-4.75
		s2.131-4.75,4.75-4.75s4.75,2.131,4.75,4.75S28.119,30.25,25.5,30.25z"/>
</g>
<polygon fill="#4B96B8" points="14,22 14,25 12,25 12,27 16,27 16,22 "/>
<polygon fill="#4B96B8" points="25,22 25,25 23,25 23,27 27,27 27,22 "/>
<polygon fill="#4B96B8" points="20,12 20,15 18,15 18,17 22,17 22,12 "/>
</svg>
