<?xml version="1.0" encoding="utf-8"?>
<!-- Generator: Adobe Illustrator 15.0.0, SVG Export Plug-In . SVG Version: 6.00 Build 0)  -->
<!DOCTYPE svg PUBLIC "-//W3C//DTD SVG 1.1//EN" "http://www.w3.org/Graphics/SVG/1.1/DTD/svg11.dtd">
<svg version="1.1" id="layer" xmlns="http://www.w3.org/2000/svg" xmlns:xlink="http://www.w3.org/1999/xlink" x="0px" y="0px"
	 viewBox="0 0 32 32" enable-background="new 0 0 32 32" xml:space="preserve">
<path fill="#4B96B8" d="M19.918,11c0.164-1.02,0.212-2.471-1.143-3.002c-1.354-0.529-2.109-0.567-1.611-1.439
	C18.641,3.978,17.585,2.515,16,2.515s-2.642,1.463-1.165,4.044c0.499,0.872-0.258,0.91-1.609,1.439
	C11.871,8.529,11.918,9.98,12.083,11H19.918z"/>
<polygon fill="#4B96B8" points="17,15 17,12 15,12 15,15 6,15 6,20 8,20 8,17 15,17 15,20 17,20 17,17 24,17 24,20 26,20 26,15 "/>
<path fill="#4B96B8" d="M28.918,30c0.164-1.02,0.212-2.471-1.143-3.002c-1.354-0.529-2.109-0.566-1.611-1.439
	c1.477-2.58,0.421-4.043-1.165-4.043s-2.642,1.463-1.165,4.043c0.499,0.873-0.258,0.91-1.609,1.439
	C20.87,27.529,20.918,28.98,21.082,30H28.918z"/>
<path fill="#4B96B8" d="M10.918,30c0.164-1.02,0.212-2.471-1.143-3.002c-1.353-0.529-2.109-0.566-1.611-1.439
	c1.477-2.58,0.421-4.043-1.164-4.043s-2.642,1.463-1.165,4.043c0.499,0.873-0.258,0.91-1.609,1.439
	C2.871,27.529,2.918,28.98,3.083,30H10.918z"/>
<path fill="#4B96B8" d="M19.918,30c0.164-1.02,0.212-2.471-1.143-3.002c-1.354-0.529-2.109-0.566-1.611-1.439
	c1.477-2.58,0.421-4.043-1.165-4.043s-2.642,1.463-1.165,4.043c0.499,0.873-0.258,0.91-1.609,1.439
	C11.87,27.529,11.918,28.98,12.082,30H19.918z"/>
</svg>
