<svg xmlns="http://www.w3.org/2000/svg" viewBox="0 0 85 85"><defs><style>.cls-1{fill:#787878;}</style></defs><title>アートボード 14 のコピー 23</title><g id="Design"><path class="cls-1" d="M41.46,60a6.28,6.28,0,1,0,6.27,6.27A6.28,6.28,0,0,0,41.46,60Z"/><path class="cls-1" d="M52.76,43.07a29.83,29.83,0,0,0,5.76-5.45A14,14,0,0,0,61,29.13c0-5.47-2-9.65-5.78-12.42s-8.9-4.25-14.83-4.25a20.72,20.72,0,0,0-11.38,3h0c-4.69,3-7.28,8.06-7.72,15.13H31.68a12.77,12.77,0,0,1,2-6.17C35.15,22.13,37.58,21,40.93,21s5.79,1,7.11,2.81a10.17,10.17,0,0,1,1.93,6,8.87,8.87,0,0,1-1.75,5.3,11,11,0,0,1-2.48,2.53l-2.94,2.3C40,42.09,38.25,44,37.6,45.65s-1.05,4.45-1.22,8.54H46a16.45,16.45,0,0,1,.54-4.31,9.35,9.35,0,0,1,3.34-4.58Z"/></g></svg>