<?xml version="1.0" encoding="utf-8"?>
<!-- Generator: Adobe Illustrator 15.0.0, SVG Export Plug-In . SVG Version: 6.00 Build 0)  -->
<!DOCTYPE svg PUBLIC "-//W3C//DTD SVG 1.1//EN" "http://www.w3.org/Graphics/SVG/1.1/DTD/svg11.dtd">
<svg version="1.1" id="layer" xmlns="http://www.w3.org/2000/svg" xmlns:xlink="http://www.w3.org/1999/xlink" x="0px" y="0px"
	 viewBox="0 0 32 32" enable-background="new 0 0 32 32" xml:space="preserve">
<path fill="#4B96B8" d="M28,12h-4V6c0-0.553-0.448-1-1-1H4C3.448,5,3,5.447,3,6v14c0,0.553,0.448,1,1,1h2.365l0.133,3.142L10.33,21
	H13v3c0,0.553,0.448,1,1,1h7.67l3.832,3.142L25.635,25H28c0.552,0,1-0.447,1-1V13C29,12.447,28.552,12,28,12z M17.501,12
	C18.329,12,19,12.672,19,13.5S18.329,15,17.501,15C16.671,15,16,14.328,16,13.5S16.671,12,17.501,12z M9.501,15
	C8.671,15,8,14.328,8,13.5S8.671,12,9.501,12C10.329,12,11,12.672,11,13.5S10.329,15,9.501,15z M13.501,15
	C12.671,15,12,14.328,12,13.5s0.671-1.5,1.501-1.5C14.329,12,15,12.672,15,13.5S14.329,15,13.501,15z M27,23h-1.365
	c-0.807,0-1.505,0.479-1.821,1.171l-0.876-0.718C22.581,23.16,22.133,23,21.67,23H15v-2h8c0.552,0,1-0.447,1-1v-6h3V23z"/>
</svg>
