<?xml version="1.0" encoding="utf-8"?>
<!-- Generator: Adobe Illustrator 15.0.0, SVG Export Plug-In . SVG Version: 6.00 Build 0)  -->
<!DOCTYPE svg PUBLIC "-//W3C//DTD SVG 1.1//EN" "http://www.w3.org/Graphics/SVG/1.1/DTD/svg11.dtd">
<svg version="1.1" id="layer" xmlns="http://www.w3.org/2000/svg" xmlns:xlink="http://www.w3.org/1999/xlink" x="0px" y="0px"
	 viewBox="0 0 32 32" enable-background="new 0 0 32 32" xml:space="preserve">
<path fill="#4B96B8" d="M6,3v26h16l4-4V3H6z M20,23v4H8V5h16v18H20z"/>
<g>
	<polygon fill="#4B96B8" points="13.338,14.847 11.165,14.847 11.165,11.932 14.14,11.932 14.14,10.313 9.554,10.313 9.554,21 
		11.165,21 11.165,16.466 13.338,16.466 	"/>
	<path fill="#4B96B8" d="M23.316,10.321h-1.781l-1.185,3.298l-1.193-3.298h-1.781l2.097,5.31l-1.193,3.055l-1.402-8.364h-2.216
		L12.847,21h1.678l0.392-2.455h1.682L16.975,21h0.401h1.292h0.438l1.245-3.401L21.587,21h1.729l-2.097-5.369L23.316,10.321z
		 M15.165,16.977l0.597-4.21l0.597,4.21H15.165z"/>
</g>
</svg>
