<?xml version="1.0" encoding="utf-8"?>
<!-- Generator: Adobe Illustrator 15.0.0, SVG Export Plug-In . SVG Version: 6.00 Build 0)  -->
<!DOCTYPE svg PUBLIC "-//W3C//DTD SVG 1.1//EN" "http://www.w3.org/Graphics/SVG/1.1/DTD/svg11.dtd">
<svg version="1.1" id="layer" xmlns="http://www.w3.org/2000/svg" xmlns:xlink="http://www.w3.org/1999/xlink" x="0px" y="0px"
	 viewBox="0 0 32 32" enable-background="new 0 0 32 32" xml:space="preserve">
<path fill="#4B96B8" d="M0,17.907"/>
<path fill="#4B96B8" d="M25.268,5l-3.422,1.981L16.54,6.97l-0.75,0.846L15.1,6.97H9.125l-2.8-1.518L1,14.915l3.437,1.989L14.839,26
	l12.725-9.012L31,14.999L25.268,5z M4,15.525L2.282,14.53l4.464-7.751l1.718,0.995L4,15.525z M21.634,19.992l-3.421-3.41l-0.7,0.705
	l3.297,3.285l-1.529,1.079l-3.05-3.079l-0.703,0.702l2.93,2.958l-1.489,1.05l-2.724-2.721l-0.7,0.704l2.601,2.598l-1.21,0.853
	l-9.988-8.698l4.644-8.063h5.053l0.368,0.478l-5.084,4.027l2.976,1.492l3.855-1.887l6.347,6.89L21.634,19.992z"/>
</svg>
