<?xml version="1.0" encoding="utf-8"?>
<!-- Generator: Adobe Illustrator 15.0.0, SVG Export Plug-In . SVG Version: 6.00 Build 0)  -->
<!DOCTYPE svg PUBLIC "-//W3C//DTD SVG 1.1//EN" "http://www.w3.org/Graphics/SVG/1.1/DTD/svg11.dtd">
<svg version="1.1" id="layer" xmlns="http://www.w3.org/2000/svg" xmlns:xlink="http://www.w3.org/1999/xlink" x="0px" y="0px"
	 viewBox="0 0 32 32" enable-background="new 0 0 32 32" xml:space="preserve">
<path fill="#4B96B8" d="M25.904,15.641c0.243,0.55,0.008,1.199-0.527,1.45l-3.869,1.81c-0.535,0.251-1.167,0.008-1.411-0.542l0,0
	c-0.244-0.55-0.008-1.199,0.528-1.45l3.867-1.811C25.029,14.848,25.66,15.091,25.904,15.641L25.904,15.641z"/>
<polygon fill="#4B96B8" points="28,21.079 20,25 20,23.922 28,20 "/>
<polygon fill="#4B96B8" points="28,19.079 22,22 22,20.922 28,18 "/>
<path fill="#4B96B8" d="M30,9.766L16,3L2,9.75v13.5L16,30l14-6.75V9.766z M16,4.11l4.816,2.322L8,12.441l-4.556-2.278L16,4.11z
	 M16,28.889L3,22.622V11.06l5,2.5v4.445l3,1.448v-4.394l5,2.55V28.889z M16,16.441l-4.94-2.47L23.737,7.84l4.819,2.323L16,16.441z
	 M29,22.622l-12,5.786V17.059l12-6V22.622z"/>
</svg>
