<svg xmlns="http://www.w3.org/2000/svg" viewBox="0 0 85 85"><defs><style>.cls-1{fill:#039adb;}</style></defs><title>アートボード 14 のコピー 35</title><g id="Design"><path class="cls-1" d="M61.36,57.29a13.6,13.6,0,0,1-4.07,3.41v8.18a1.42,1.42,0,0,1-1.42,1.42H20.31a1.44,1.44,0,0,1-1.42-1.42V16.24a1.44,1.44,0,0,1,1.42-1.42H55.2l3.24-4.12a6.14,6.14,0,0,0-2.57-.6H20.31a6.14,6.14,0,0,0-6.14,6.14V68.88A6.14,6.14,0,0,0,20.31,75H55.87A6.14,6.14,0,0,0,62,68.88V56.46Z"/><path class="cls-1" d="M81.3,20.4h0l-6.65-5.21L68,10,59.47,20.86h0L42.56,42.42a6.78,6.78,0,0,0-1.31,2.76l-2.2,10a3.62,3.62,0,0,0,1.31,3.67,3.66,3.66,0,0,0,2.26.79,3.73,3.73,0,0,0,1.62-.38l9.31-4.58a6.34,6.34,0,0,0,2.24-1.81L73,30.93,81.3,20.4ZM68.81,16.61l5.85,4.59L72,24.65,66.1,20.06ZM52.08,50a1.7,1.7,0,0,1-.61.49l-5,2.49c-.51-.49-1.08-1-1.71-1.51l1.15-5.28a2,2,0,0,1,.41-.85L63.19,23.77,69,28.37Z"/></g></svg>