<svg id="layer" xmlns="http://www.w3.org/2000/svg" viewBox="0 0 32 32"><defs><style>.cls-1{fill:#bbb88c;}</style></defs><title>07</title><path class="cls-1" d="M25.8193,20l2.4-12H9V9.0991L7.8047,5.2139,4.3164,4.0513,3.6836,5.9487l2.5117.8374L9,15.9V16h.0313L9.95,18.9878,8.6084,23.0107C8.5723,23.0093,8.5371,23,8.5,23a2.5,2.5,0,1,0,2.4492,3h9.1016a2.5159,2.5159,0,1,0,.4609-2H10.4883c-.0225-.03-.0479-.0581-.0713-.0874L12,19.1616V20ZM16,18V16h4v2Zm0-5h4v2H16Zm-1,2H10.8154L10.2,13H15Zm1-3V10h4v2Zm5,1h4.1807l-.4,2H21Zm0,5V16h3.58l-.3994,2Zm4.3809-6H21V10h4.78ZM15,10v2H9.8926l-.6153-2Zm-3.877,6H15v2H12v.8506Z"/></svg>