<?xml version="1.0" encoding="utf-8"?>
<!-- Generator: Adobe Illustrator 22.1.0, SVG Export Plug-In . SVG Version: 6.00 Build 0)  -->
<svg version="1.1" id="layer" xmlns="http://www.w3.org/2000/svg" xmlns:xlink="http://www.w3.org/1999/xlink" x="0px" y="0px"
	 viewBox="0 0 32 32" style="enable-background:new 0 0 32 32;" xml:space="preserve">
<style type="text/css">
	.st0{fill:#BBB88C;}
</style>
<g>
	<path class="st0" d="M5,14.1v3.9c0,0,3.5,0.1,5.5,1.1V13C8.5,14,5,14.1,5,14.1z"/>
	<path class="st0" d="M21.7,5l-1.8,1.2c3.9,6,3.9,13.7,0,19.6l1.8,1.2C26.1,20.3,26.1,11.7,21.7,5L21.7,5z"/>
	<path class="st0" d="M14.7,9.6l-1.8,1.2c2.1,3.2,2.1,7.3,0,10.4l1.8,1.2C17.2,18.5,17.2,13.5,14.7,9.6L14.7,9.6z"/>
	<path class="st0" d="M20.7,16c0-3.1-0.9-6.1-2.6-8.6l-1.8,1.2c3,4.5,3,10.4,0,14.9l1.8,1.2C19.8,22.1,20.7,19.1,20.7,16z"/>
</g>
</svg>
